<svg width="136" height="129" viewBox="0 0 136 129" fill="none" xmlns="http://www.w3.org/2000/svg">
<g filter="url(#filter0_d)">
<path d="M48.8 52.864C48.8 56.224 48.152 59.176 46.856 61.72C45.608 64.216 43.928 66.136 41.816 67.48C39.704 68.824 37.448 69.808 35.048 70.432C32.696 71.104 30.2 71.44 27.56 71.44C22.136 71.44 17.24 70.024 12.872 67.192C8.504 64.36 5.864 60.544 4.952 55.744L20.792 51.712C21.08 53.152 21.8 54.376 22.952 55.384C24.104 56.392 25.448 56.896 26.984 56.896C30.152 56.896 31.736 55.6 31.736 53.008C31.736 50.128 28.712 48.688 22.664 48.688C18.92 48.688 14.48 49.192 9.344 50.2L11.144 19.024H45.776V33.28H25.616L25.328 36.952C26.864 36.712 28.136 36.592 29.144 36.592C34.808 36.592 39.488 37.96 43.184 40.696C46.928 43.432 48.8 47.488 48.8 52.864Z" fill="#363636"/>
<path d="M131.088 80.341C131.916 79.908 132.245 78.8939 131.803 78.062C131.371 77.2416 130.361 76.9112 129.533 77.3442L111.157 86.9613V83.6455L131.088 73.2193C131.916 72.7863 132.245 71.7722 131.803 70.9403C131.383 70.1199 130.373 69.8009 129.533 70.2339L111.157 79.8396V76.7061L131.088 66.2799C131.666 65.995 132.007 65.4025 131.996 64.7644C131.984 64.1263 131.621 63.5452 131.042 63.2603L100.17 48.299C99.7156 48.0711 99.1707 48.0825 98.7054 48.299L32.9422 80.5689C32.3633 80.8424 32.0001 81.4349 32.0001 82.0844C32.0001 82.7339 32.3747 83.3036 32.9422 83.5999L65.8124 99.6209C66.0508 99.7348 66.3005 99.8032 66.5502 99.8032C66.8112 99.8032 67.0837 99.7348 67.322 99.5981L88.5356 88.511V91.656L66.5275 103.165L34.4064 87.4969C33.5891 87.0867 32.579 87.4513 32.1704 88.2717C31.7731 89.1149 32.1136 90.1177 32.9535 90.5165L65.8238 106.56C66.0621 106.674 66.3118 106.72 66.5615 106.72C66.8226 106.72 67.095 106.651 67.3334 106.537L88.5469 95.4276V98.7435L66.5388 110.252L34.4177 94.6072C33.5891 94.1856 32.579 94.5502 32.1704 95.3934C31.7731 96.2139 32.1136 97.2394 32.9535 97.6382L65.8238 113.659C66.0621 113.773 66.3118 113.842 66.5615 113.842C66.8226 113.842 67.095 113.773 67.3334 113.636L88.5469 102.549V105.637L66.5388 117.146L34.4177 101.501C33.5891 101.114 32.579 101.444 32.1704 102.287C31.7618 103.13 32.1136 104.133 32.9535 104.543L65.8238 120.564C66.0621 120.701 66.3118 120.735 66.5615 120.735C66.8226 120.735 67.095 120.667 67.3334 120.53L110.249 98.1168L131.088 87.212C131.916 86.7904 132.245 85.7649 131.803 84.9445C131.36 84.124 130.361 83.7822 129.533 84.2266L111.157 93.8551V90.7444L131.088 80.341ZM99.4431 51.6832L126.57 64.8442L109.341 73.846L81.8957 60.2977L99.4431 51.6832ZM66.5388 96.2139L37.5277 82.0616L58.3326 71.8633L86.5039 85.7763L66.5388 96.2139ZM91.9179 86.7562L102.689 81.1272C103.507 80.7056 103.824 79.6915 103.404 78.8597C102.973 78.0279 101.963 77.7088 101.146 78.1418L90.2154 83.8392L62.1577 69.9832L78.082 62.1664L107.786 76.8428V95.5871L91.9179 103.894V86.7562Z" fill="url(#paint0_linear)"/>
<path d="M62.0442 52.5616C75.6077 52.5616 85.8456 47.7074 85.8456 41.2808C85.8456 34.8542 75.6191 30 62.0442 30C48.4807 30 38.2542 34.8542 38.2542 41.2808C38.2542 47.7074 48.4807 52.5616 62.0442 52.5616ZM62.0442 33.3614C74.0868 33.3614 82.4746 37.5319 82.4746 41.2694C82.4746 45.0069 74.0868 49.1773 62.0442 49.1773C50.0016 49.1773 41.6138 45.0069 41.6138 41.2694C41.6138 37.5319 50.013 33.3614 62.0442 33.3614Z" fill="url(#paint1_linear)"/>
<path d="M85.4369 51.0928C85.8228 50.2382 85.4369 49.2355 84.597 48.8595C83.7457 48.4834 82.7582 48.8595 82.3723 49.7141C81.2146 52.3007 73.1219 55.0924 62.0554 55.0924C51.0003 55.0924 42.8963 52.3007 41.7272 49.7141C41.3413 48.8595 40.3425 48.4834 39.5025 48.8709C38.6513 49.2469 38.2767 50.2496 38.6626 51.0928C40.944 56.1521 52.385 58.4652 62.0554 58.4652C71.7258 58.4652 83.1782 56.1521 85.4369 51.0928Z" fill="url(#paint2_linear)"/>
<path d="M63.7353 63.1579C63.7353 62.2236 62.9861 61.4715 62.0554 61.4715C51.0003 61.4715 42.8963 58.6798 41.7272 56.0818C41.3413 55.2386 40.3425 54.8512 39.5025 55.2386C38.6513 55.626 38.2767 56.6174 38.6626 57.472C40.944 62.5312 52.385 64.8444 62.0554 64.8444C62.9748 64.8444 63.7353 64.0923 63.7353 63.1579Z" fill="url(#paint3_linear)"/>
<path d="M51.602 69.6197C52.4192 69.6197 53.1343 69.0272 53.2591 68.184C53.3953 67.261 52.7711 66.395 51.8517 66.2582C44.7919 65.1985 42.1019 63.4096 41.6706 62.6119C41.2166 61.7915 40.2064 61.4952 39.3892 61.9396C38.572 62.384 38.2655 63.421 38.7195 64.23C40.422 67.3521 46.5285 68.8676 51.3523 69.5969C51.4318 69.6083 51.5112 69.6197 51.602 69.6197Z" fill="url(#paint4_linear)"/>
<path d="M41.5684 68.7076C41.0463 67.9327 40.002 67.7504 39.2302 68.2746C38.4698 68.7987 38.2768 69.8584 38.8103 70.6219C39.7296 71.9665 41.8748 73.0376 45.3593 73.8808C45.4955 73.915 45.6204 73.9264 45.7566 73.9264C46.5057 73.9264 47.1981 73.4136 47.391 72.6388C47.618 71.7386 47.0619 70.827 46.1539 70.5991C42.2721 69.6533 41.6024 68.7418 41.5684 68.7076Z" fill="url(#paint5_linear)"/>
<path d="M91.6334 70.2883C91.0173 68.8007 87.3928 68.8991 83.5377 70.5081C79.6826 72.1171 77.0569 74.6274 77.673 76.115C78.289 77.6026 81.9136 77.5043 85.7687 75.8953C89.6238 74.2863 92.2495 71.776 91.6334 70.2883Z" fill="url(#paint6_linear)"/>
</g>
<defs>
<filter id="filter0_d" x="0.952026" y="19.0239" width="135.048" height="109.711" filterUnits="userSpaceOnUse" color-interpolation-filters="sRGB">
<feFlood flood-opacity="0" result="BackgroundImageFix"/>
<feColorMatrix in="SourceAlpha" type="matrix" values="0 0 0 0 0 0 0 0 0 0 0 0 0 0 0 0 0 0 127 0"/>
<feOffset dy="4"/>
<feGaussianBlur stdDeviation="2"/>
<feColorMatrix type="matrix" values="0 0 0 0 0 0 0 0 0 0 0 0 0 0 0 0 0 0 0.25 0"/>
<feBlend mode="normal" in2="BackgroundImageFix" result="effect1_dropShadow"/>
<feBlend mode="normal" in="SourceGraphic" in2="effect1_dropShadow" result="shape"/>
</filter>
<linearGradient id="paint0_linear" x1="34.907" y1="59.0228" x2="129.452" y2="65.6232" gradientUnits="userSpaceOnUse">
<stop stop-color="#FFD251"/>
<stop offset="1" stop-color="#FFAF51"/>
</linearGradient>
<linearGradient id="paint1_linear" x1="39.6376" y1="33.3842" x2="84.3414" y2="38.1638" gradientUnits="userSpaceOnUse">
<stop stop-color="#FFD251"/>
<stop offset="1" stop-color="#FFAF51"/>
</linearGradient>
<linearGradient id="paint2_linear" x1="39.8792" y1="50.1766" x2="82.0779" y2="60.5023" gradientUnits="userSpaceOnUse">
<stop stop-color="#FFD251"/>
<stop offset="1" stop-color="#FFAF51"/>
</linearGradient>
<linearGradient id="paint3_linear" x1="39.244" y1="56.5514" x2="62.8042" y2="59.6388" gradientUnits="userSpaceOnUse">
<stop stop-color="#FFD251"/>
<stop offset="1" stop-color="#FFAF51"/>
</linearGradient>
<linearGradient id="paint4_linear" x1="38.9384" y1="62.9163" x2="52.8443" y2="64.2363" gradientUnits="userSpaceOnUse">
<stop stop-color="#FFD251"/>
<stop offset="1" stop-color="#FFAF51"/>
</linearGradient>
<linearGradient id="paint5_linear" x1="38.7678" y1="68.8692" x2="47.2064" y2="69.5115" gradientUnits="userSpaceOnUse">
<stop stop-color="#FFD251"/>
<stop offset="1" stop-color="#FFAF51"/>
</linearGradient>
<linearGradient id="paint6_linear" x1="80.8177" y1="77.778" x2="78.7845" y2="72.6257" gradientUnits="userSpaceOnUse">
<stop stop-color="#FFD251"/>
<stop offset="1" stop-color="#FFAF51"/>
</linearGradient>
</defs>
</svg>
