<svg width="136" height="129" viewBox="0 0 136 129" fill="none" xmlns="http://www.w3.org/2000/svg">
<g filter="url(#filter0_d)">
<path d="M40.376 43V43.288C42.968 44.104 45.056 45.592 46.64 47.752C48.272 49.864 49.088 52.144 49.088 54.592C49.088 58.384 48.008 61.6 45.848 64.24C43.688 66.832 41.048 68.68 37.928 69.784C34.808 70.888 31.424 71.44 27.776 71.44C22.16 71.44 17.168 70.12 12.8 67.48C8.48 64.84 5.672 60.928 4.376 55.744L20.36 52C20.648 53.344 21.368 54.52 22.52 55.528C23.72 56.536 25.16 57.04 26.84 57.04C27.992 57.04 29.024 56.776 29.936 56.248C30.848 55.672 31.304 54.784 31.304 53.584C31.304 52.144 30.68 51.16 29.432 50.632C28.184 50.104 26.336 49.84 23.888 49.84H18.992V38.032H24.464C28.496 38.032 30.512 36.808 30.512 34.36C30.512 33.352 30.104 32.608 29.288 32.128C28.52 31.648 27.584 31.408 26.48 31.408C25.232 31.408 24.104 31.792 23.096 32.56C22.136 33.328 21.536 34.408 21.296 35.8L5.384 32.416C6.968 27.28 9.824 23.536 13.952 21.184C18.128 18.784 22.784 17.584 27.92 17.584C30.32 17.584 32.648 17.872 34.904 18.448C37.208 19.024 39.368 19.888 41.384 21.04C43.4 22.192 45.032 23.776 46.28 25.792C47.528 27.808 48.152 30.088 48.152 32.632C48.152 35.368 47.432 37.624 45.992 39.4C44.552 41.128 42.68 42.328 40.376 43Z" fill="#363636"/>
<path d="M106.735 86.946V37.4735C106.735 33.3683 103.367 30 99.2615 30H39.4735C35.3683 30 32 33.3683 32 37.4735V111.261C32 115.366 35.3683 118.735 39.4735 118.735H83.5777C83.5777 118.314 83.5777 117.893 83.683 117.472L84.3145 114.735C85.3671 110.314 87.4723 106.209 90.7354 103.051L106.735 86.946ZM77.8936 65.5781L79.8936 63.1571C80.1041 62.9466 80.4199 62.9466 80.6304 63.1571C81.3672 63.7887 82.2093 64.315 83.0514 64.6307C84.104 65.0518 85.0514 65.2623 85.9987 65.2623C86.8408 65.2623 87.4723 65.0518 87.9986 64.736C88.525 64.315 88.7355 63.8939 88.7355 63.2624C88.7355 63.0518 88.7355 62.8413 88.6302 62.6308C88.6302 62.4203 88.525 62.2098 88.3144 62.1045C88.2092 61.894 87.9987 61.7887 87.7881 61.6834C87.5776 61.5782 87.3671 61.3677 87.0513 61.2624C86.7355 61.1571 86.525 60.9466 86.104 60.8414C85.7882 60.7361 85.3671 60.5256 84.9461 60.4203C84.5251 60.3151 84.2093 60.2098 83.8935 60.1045C83.5777 59.9993 83.2619 59.894 82.8409 59.7888C82.5251 59.6835 82.1041 59.473 81.8935 59.3677C81.5778 59.2625 81.3672 59.0519 81.0514 58.9467C80.7357 58.7362 80.4199 58.6309 80.2094 58.4204C79.9988 58.2099 79.7883 57.9993 79.4725 57.7888C79.262 57.5783 79.0515 57.3678 78.9462 57.052C78.7357 56.7362 78.6305 56.5257 78.5252 56.2099C78.4199 55.8941 78.3147 55.5783 78.2094 55.2626C78.2094 54.9468 78.1042 54.5257 78.1042 54.1047C78.1042 52.4205 78.6305 51.0521 79.6831 49.8943C80.7357 48.7364 82.2093 48.1048 84.104 47.8943V45.2628C84.104 44.947 84.3145 44.7365 84.6303 44.7365H87.0513C87.3671 44.7365 87.5776 44.947 87.5776 45.2628V47.8943C88.6302 48.1048 89.5776 48.4206 90.5249 48.8417C91.367 49.2627 91.9986 49.6837 92.6301 50.1048C92.8406 50.3153 92.8406 50.6311 92.7354 50.8416L90.8407 53.2626C90.6302 53.4731 90.4196 53.4731 90.2091 53.3679C88.6302 52.3153 87.0513 51.789 85.5777 51.789C84.7356 51.789 84.104 51.9995 83.683 52.3153C83.2619 52.631 83.0514 53.0521 83.0514 53.6836C83.0514 54.2099 83.3672 54.7362 83.7882 55.052C84.3145 55.3678 85.1566 55.7889 86.4197 56.2099C86.946 56.4204 87.4724 56.5257 87.7881 56.6309C88.1039 56.7362 88.6302 56.9467 89.0513 57.052C89.4723 57.2625 89.8933 57.3678 90.2091 57.5783C90.5249 57.7888 90.8407 57.8941 91.1565 58.1046C91.4723 58.3151 91.788 58.5256 91.9986 58.7362C92.2091 58.9467 92.4196 59.2625 92.6301 59.473C92.8406 59.7888 93.0512 60.1045 93.1564 60.4203C93.2617 60.7361 93.3669 61.0519 93.4722 61.4729C93.5775 61.894 93.5775 62.315 93.5775 62.8413C93.5775 64.5255 93.0512 65.9991 91.9986 67.0517C90.9459 68.2096 89.4723 68.8412 87.5776 69.157V71.4727C87.5776 71.7885 87.3671 71.999 87.0513 71.999H84.6303C84.3145 71.999 84.104 71.7885 84.104 71.4727V69.0517C81.7883 68.7359 79.6831 67.6833 77.9989 66.1044C77.6831 65.9991 77.6831 65.6834 77.8936 65.5781ZM47.5786 47.368H68.2097C69.6833 47.368 70.8412 48.5259 70.8412 49.9995C70.8412 51.4732 69.6833 52.631 68.2097 52.631H47.5786C46.1049 52.631 44.9471 51.4732 44.9471 49.9995C44.9471 48.6311 46.1049 47.368 47.5786 47.368ZM47.5786 63.6834H68.2097C69.6833 63.6834 70.8412 64.8413 70.8412 66.3149C70.8412 67.7886 69.6833 68.9464 68.2097 68.9464H47.5786C46.1049 68.9464 44.9471 67.7886 44.9471 66.3149C44.9471 64.8413 46.1049 63.6834 47.5786 63.6834ZM76.1042 101.577H47.5786C46.1049 101.577 44.9471 100.419 44.9471 98.9457C44.9471 97.4721 46.1049 96.3142 47.5786 96.3142H76.1042C77.5779 96.3142 78.7357 97.4721 78.7357 98.9457C78.7357 100.314 77.5779 101.577 76.1042 101.577ZM47.5786 85.2618C46.1049 85.2618 44.9471 84.104 44.9471 82.6303C44.9471 81.1567 46.1049 79.9988 47.5786 79.9988H91.1565C92.6301 79.9988 93.788 81.1567 93.788 82.6303C93.788 84.104 92.6301 85.2618 91.1565 85.2618H47.5786Z" fill="url(#paint0_linear)"/>
<path d="M115.114 83.6939L94.3483 104.463L102.983 113.096L123.749 92.3277L115.114 83.6939Z" fill="url(#paint1_linear)"/>
<path d="M131.261 81.5775L125.892 76.3145C124.945 75.3671 123.577 75.3671 122.735 76.104L117.787 81.0512L126.419 89.6826L131.471 84.7353C132.208 83.8933 132.208 82.5249 131.261 81.5775Z" fill="url(#paint2_linear)"/>
<path d="M87.7882 115.577L87.1567 118.314C86.9461 119.472 87.9987 120.63 89.1566 120.314L91.8934 119.682C94.946 118.945 97.788 117.682 100.104 115.682L91.6829 107.261C89.7882 109.788 88.4198 112.525 87.7882 115.577Z" fill="url(#paint3_linear)"/>
</g>
<defs>
<filter id="filter0_d" x="0.375977" y="17.584" width="135.624" height="110.783" filterUnits="userSpaceOnUse" color-interpolation-filters="sRGB">
<feFlood flood-opacity="0" result="BackgroundImageFix"/>
<feColorMatrix in="SourceAlpha" type="matrix" values="0 0 0 0 0 0 0 0 0 0 0 0 0 0 0 0 0 0 127 0"/>
<feOffset dy="4"/>
<feGaussianBlur stdDeviation="2"/>
<feColorMatrix type="matrix" values="0 0 0 0 0 0 0 0 0 0 0 0 0 0 0 0 0 0 0.25 0"/>
<feBlend mode="normal" in2="BackgroundImageFix" result="effect1_dropShadow"/>
<feBlend mode="normal" in="SourceGraphic" in2="effect1_dropShadow" result="shape"/>
</filter>
<linearGradient id="paint0_linear" x1="34.1725" y1="43.3102" x2="105.046" y2="46.3357" gradientUnits="userSpaceOnUse">
<stop stop-color="#FFD251"/>
<stop offset="1" stop-color="#FFAF51"/>
</linearGradient>
<linearGradient id="paint1_linear" x1="96.2472" y1="105.154" x2="118.057" y2="88.0811" gradientUnits="userSpaceOnUse">
<stop stop-color="#FFD251"/>
<stop offset="1" stop-color="#FFAF51"/>
</linearGradient>
<linearGradient id="paint2_linear" x1="118.201" y1="77.6913" x2="131.668" y2="78.379" gradientUnits="userSpaceOnUse">
<stop stop-color="#FFD251"/>
<stop offset="1" stop-color="#FFAF51"/>
</linearGradient>
<linearGradient id="paint3_linear" x1="87.5068" y1="109.227" x2="99.802" y2="109.844" gradientUnits="userSpaceOnUse">
<stop stop-color="#FFD251"/>
<stop offset="1" stop-color="#FFAF51"/>
</linearGradient>
</defs>
</svg>
