<svg width="136" height="137" viewBox="0 0 136 137" fill="none" xmlns="http://www.w3.org/2000/svg">
<g filter="url(#filter0_d)">
<path d="M6.752 56.68L26.912 40.552C28.784 39.112 29.72 37.624 29.72 36.088C29.72 35.08 29.384 34.24 28.712 33.568C28.088 32.848 27.176 32.488 25.976 32.488C24.584 32.488 23.432 33.04 22.52 34.144C21.608 35.248 21.104 36.736 21.008 38.608L4.664 36.736C5.288 30.496 7.76 25.744 12.08 22.48C16.4 19.216 21.512 17.584 27.416 17.584C30.056 17.584 32.552 17.896 34.904 18.52C37.256 19.144 39.416 20.104 41.384 21.4C43.4 22.648 44.984 24.376 46.136 26.584C47.336 28.792 47.936 31.336 47.936 34.216C47.936 36.856 47.408 39.256 46.352 41.416C45.344 43.528 44.216 45.184 42.968 46.384C41.72 47.584 40.064 48.904 38 50.344L30.512 55.672H48.08V70H6.752V56.68Z" fill="#363636"/>
<path d="M56.948 75.103C56.948 81.432 51.818 86.549 45.515 86.549C39.174 86.549 34.058 81.432 34.058 75.103C34.056 68.788 39.173 63.658 45.515 63.658C51.818 63.658 56.948 68.788 56.948 75.103Z" fill="url(#paint0_linear)"/>
<path d="M107.053 75.103C107.053 81.432 112.184 86.549 118.485 86.549C124.827 86.549 129.958 81.432 129.958 75.103C129.957 68.788 124.826 63.658 118.485 63.658C112.184 63.658 107.053 68.788 107.053 75.103Z" fill="url(#paint1_linear)"/>
<path d="M75.672 114.44C75.412 112.004 76.35 109.752 77.938 108.112C68.25 106.262 64.28 101.537 60.83 97.264C59.149 95.168 57.549 93.176 55.426 91.77C55.361 91.731 55.283 91.731 55.232 91.678C53.421 90.18 51.129 89.231 48.605 89.231H42.419C36.688 89.231 32 93.906 32 99.635V128.502H59.018V109.844C62.963 113.294 68.538 116.575 77.104 118.008C76.389 116.967 75.828 115.794 75.672 114.44Z" fill="url(#paint2_linear)"/>
<path d="M121.598 89.231H115.399C112.887 89.231 110.583 90.181 108.786 91.679C108.722 91.731 108.641 91.731 108.591 91.769C106.468 93.175 104.866 95.156 103.174 97.265C99.385 101.953 95.088 107.304 83.07 108.632C80.349 108.944 78.396 111.392 78.695 114.113C78.968 116.652 81.118 118.527 83.617 118.527C83.8 118.527 83.982 118.512 84.178 118.501C94.36 117.368 100.662 113.748 104.998 109.907V128.502H132V99.635C132 93.906 127.312 89.231 121.598 89.231Z" fill="url(#paint3_linear)"/>
<path d="M82.2566 42.7747H82.257H107.767C109.723 42.7747 111.386 44.4492 111.386 46.6097V59.3937C111.386 61.555 109.723 63.2286 107.767 63.2286H100.142H99.1419V64.2286V68.2516C97.8272 66.6949 96.5125 65.1385 95.1966 63.582L94.897 63.2276H94.433H82.257C80.2997 63.2276 78.637 61.5538 78.637 59.3927V46.6097C78.637 44.4481 80.3 42.7739 82.2566 42.7747Z" stroke="url(#paint4_linear)" stroke-width="2"/>
<path fill-rule="evenodd" clip-rule="evenodd" d="M74.729 56.173V44.722C74.729 44.169 74.809 43.6355 74.9576 43.1336H56.6404C56.0882 43.1336 55.6404 42.6858 55.6404 42.1336V41.5068C55.6404 40.9546 56.0882 40.5068 56.6404 40.5068H76.686C77.5572 39.7892 78.6563 39.361 79.851 39.361H91.054V36.631C91.054 32.969 88.216 30 84.718 30H55.336C51.838 30 49 32.969 49 36.631V50.8C49 54.462 51.838 57.433 55.336 57.433H60.184V65.262C60.184 65.694 60.778 65.999 61.085 65.637C62.3476 64.1439 63.6087 62.6509 64.8699 61.1577C65.9182 59.9166 66.9666 58.6754 68.016 57.434H74.878C74.783 57.028 74.729 56.608 74.729 56.173ZM55.6404 36.2534C55.6404 35.7011 56.0882 35.2534 56.6404 35.2534H83.5343C84.0866 35.2534 84.5343 35.7011 84.5343 36.2534V36.8801C84.5343 37.4324 84.0866 37.8801 83.5343 37.8801H56.6404C56.0882 37.8801 55.6404 37.4324 55.6404 36.8801V36.2534Z" fill="url(#paint5_linear)"/>
<path d="M85.8477 49.7003C85.8477 48.975 86.4357 48.387 87.161 48.387H102.921C103.647 48.387 104.235 48.975 104.235 49.7003C104.235 50.4257 103.647 51.0137 102.921 51.0137H87.161C86.4357 51.0137 85.8477 50.4257 85.8477 49.7003Z" fill="url(#paint6_linear)"/>
<path d="M85.8477 54.9538C85.8477 54.2284 86.4357 53.6404 87.161 53.6404H98.9812C99.7066 53.6404 100.295 54.2284 100.295 54.9538C100.295 55.6791 99.7066 56.2671 98.9812 56.2671H87.161C86.4357 56.2671 85.8477 55.6791 85.8477 54.9538Z" fill="url(#paint7_linear)"/>
</g>
<defs>
<filter id="filter0_d" x="0.66394" y="17.584" width="135.336" height="118.918" filterUnits="userSpaceOnUse" color-interpolation-filters="sRGB">
<feFlood flood-opacity="0" result="BackgroundImageFix"/>
<feColorMatrix in="SourceAlpha" type="matrix" values="0 0 0 0 0 0 0 0 0 0 0 0 0 0 0 0 0 0 127 0"/>
<feOffset dy="4"/>
<feGaussianBlur stdDeviation="2"/>
<feColorMatrix type="matrix" values="0 0 0 0 0 0 0 0 0 0 0 0 0 0 0 0 0 0 0.25 0"/>
<feBlend mode="normal" in2="BackgroundImageFix" result="effect1_dropShadow"/>
<feBlend mode="normal" in="SourceGraphic" in2="effect1_dropShadow" result="shape"/>
</filter>
<linearGradient id="paint0_linear" x1="34.7234" y1="67.0916" x2="56.4145" y2="68.191" gradientUnits="userSpaceOnUse">
<stop stop-color="#FFD251"/>
<stop offset="1" stop-color="#FFAF51"/>
</linearGradient>
<linearGradient id="paint1_linear" x1="107.719" y1="67.0916" x2="129.424" y2="68.1924" gradientUnits="userSpaceOnUse">
<stop stop-color="#FFD251"/>
<stop offset="1" stop-color="#FFAF51"/>
</linearGradient>
<linearGradient id="paint2_linear" x1="33.3354" y1="95.1216" x2="76.8263" y2="97.7002" gradientUnits="userSpaceOnUse">
<stop stop-color="#FFD251"/>
<stop offset="1" stop-color="#FFAF51"/>
</linearGradient>
<linearGradient id="paint3_linear" x1="80.2152" y1="95.1216" x2="130.648" y2="98.5933" gradientUnits="userSpaceOnUse">
<stop stop-color="#FFD251"/>
<stop offset="1" stop-color="#FFAF51"/>
</linearGradient>
<linearGradient id="paint4_linear" x1="78.6471" y1="46.0573" x2="111.536" y2="48.0862" gradientUnits="userSpaceOnUse">
<stop stop-color="#FFD251"/>
<stop offset="1" stop-color="#FFAF51"/>
</linearGradient>
<linearGradient id="paint5_linear" x1="50.2225" y1="35.3696" x2="90.0352" y2="37.7402" gradientUnits="userSpaceOnUse">
<stop stop-color="#FFD251"/>
<stop offset="1" stop-color="#FFAF51"/>
</linearGradient>
<linearGradient id="paint6_linear" x1="86.3822" y1="49.569" x2="103.61" y2="51.6065" gradientUnits="userSpaceOnUse">
<stop stop-color="#FFD251"/>
<stop offset="1" stop-color="#FFAF51"/>
</linearGradient>
<linearGradient id="paint7_linear" x1="86.3822" y1="49.569" x2="103.61" y2="51.6065" gradientUnits="userSpaceOnUse">
<stop stop-color="#FFD251"/>
<stop offset="1" stop-color="#FFAF51"/>
</linearGradient>
</defs>
</svg>
