<svg width="48" height="44" viewBox="0 0 48 44" fill="none" xmlns="http://www.w3.org/2000/svg">
<g filter="url(#filter0_d)">
<path d="M25.8283 7.45451C24.964 10.0129 25.1766 12.842 25.2225 15.6382C25.2516 17.3974 24.484 18.2458 22.9787 18.8833C21.4602 19.5263 20.0335 20.4383 18.6429 21.3556C17.307 22.2369 17.0476 23.2947 18.2666 24.6504C19.6311 26.1683 21.0239 27.662 22.6553 28.8382C23.9939 29.8034 24.4606 31.042 24.4086 32.5806C24.3508 34.2832 24.2612 35.9896 24.0764 37.6818C23.8853 39.4336 23.0908 39.8739 21.717 38.8148C18.7113 36.4973 15.5322 34.3065 12.9588 31.5358C10.4146 28.7958 7.27741 26.8347 4.772 24.0735C3.75818 22.9561 3.77892 22.278 4.62332 21.3525C5.51361 20.3769 6.33816 19.2167 7.43315 18.5805C12.7343 15.5019 17.1001 11.1965 21.7611 7.27547C22.3968 6.74097 23.0908 6.26441 23.8077 5.85402C24.2899 5.57811 24.8303 5.13572 25.4303 5.6153C25.973 6.04948 25.9236 6.66961 25.8283 7.45451ZM22.2689 11.2246C20.3604 12.0648 18.7082 13.1425 17.1539 14.4286C14.7663 16.4045 12.2485 18.2199 9.9315 20.2775C8.13329 21.8745 8.02564 22.9115 9.27548 24.2201C12.6606 27.764 16.422 30.8707 20.2038 33.9463C20.6039 34.2715 21.0755 34.8817 21.687 34.2023C22.1259 33.7149 22.1546 33.1069 22.1286 32.4924C22.0986 31.7841 21.4951 31.5311 21.0927 31.109C19.2001 29.1241 17.2678 27.1746 15.455 25.1144C13.0202 22.3476 13.1022 21.958 15.9416 19.7996C17.0833 18.9321 18.2635 18.1546 19.5446 17.5107C22.0615 16.2453 23.1106 14.2349 22.2689 11.2246Z" fill="url(#paint0_linear)"/>
<path d="M42.8983 39.8981C41.7681 40.2484 41.0079 39.6231 40.4944 39.1201C37.3321 36.0225 33.4899 33.8006 30.4313 30.5412C28.9053 28.9152 26.8728 27.7731 25.3419 26.0667C22.8652 23.305 22.9763 21.0027 25.6163 18.5732C30.1119 14.4364 34.5584 10.2421 39.0297 6.07716C39.6438 5.50547 40.2646 4.93809 40.9162 4.41397C41.6635 3.81243 42.5088 3.94087 43.2711 4.32748C44.2567 4.82739 44.0423 5.81856 43.7772 6.57837C43.1979 8.24027 43.2085 9.93244 43.2654 11.6376C43.3448 14.0135 42.6786 15.8812 40.4648 17.0657C39.1171 17.787 37.8941 18.792 36.7047 19.7841C35.0089 21.1986 35.0375 21.9519 36.6147 23.5546C37.8743 24.8342 39.3632 25.8232 40.5923 27.1707C41.802 28.497 42.5564 29.8804 42.6323 31.6725C42.7492 34.4276 43.1719 37.1789 42.8983 39.8981ZM39.3791 35.078C40.3793 32.1802 39.9619 30.642 38.206 29.1699C36.4074 27.662 34.8959 25.7601 33.3933 23.9139C31.5858 21.6929 31.6564 20.6952 33.894 19.3088C35.6327 18.2316 37.1446 16.8763 38.7893 15.6914C41.3582 13.8409 41.6348 12.2093 39.9121 8.78559C36.53 11.3158 33.6245 14.3361 30.6871 17.3061C29.5105 18.4958 28.5298 19.8887 27.4304 21.1623C26.672 22.0406 26.6791 22.9305 27.3832 23.7734C30.8376 27.9093 35.0468 31.1479 39.3791 35.078Z" fill="url(#paint1_linear)"/>
</g>
<defs>
<filter id="filter0_d" x="0" y="0" width="47.9998" height="44" filterUnits="userSpaceOnUse" color-interpolation-filters="sRGB">
<feFlood flood-opacity="0" result="BackgroundImageFix"/>
<feColorMatrix in="SourceAlpha" type="matrix" values="0 0 0 0 0 0 0 0 0 0 0 0 0 0 0 0 0 0 127 0"/>
<feOffset/>
<feGaussianBlur stdDeviation="2"/>
<feColorMatrix type="matrix" values="0 0 0 0 1 0 0 0 0 0.822745 0 0 0 0 0.317647 0 0 0 0.35 0"/>
<feBlend mode="normal" in2="BackgroundImageFix" result="effect1_dropShadow"/>
<feBlend mode="normal" in="SourceGraphic" in2="effect1_dropShadow" result="shape"/>
</filter>
<linearGradient id="paint0_linear" x1="4.63628" y1="10.4998" x2="25.4091" y2="11.1779" gradientUnits="userSpaceOnUse">
<stop stop-color="#FFD251"/>
<stop offset="1" stop-color="#FFAF51"/>
</linearGradient>
<linearGradient id="paint1_linear" x1="24.1519" y1="9.39999" x2="43.5571" y2="9.9585" gradientUnits="userSpaceOnUse">
<stop stop-color="#FFD251"/>
<stop offset="1" stop-color="#FFAF51"/>
</linearGradient>
</defs>
</svg>
