<svg width="90" height="75" viewBox="0 0 90 75" fill="none" xmlns="http://www.w3.org/2000/svg">
<path d="M89.3161 28.4735C89.9888 27.305 89.5898 25.8101 88.4225 25.1374L67.7302 13.1903L70.0923 14.5544V6.19835C70.0923 5.29261 69.3581 4.56055 68.4534 4.56055H63.13C62.2243 4.56055 61.4922 5.29261 61.4922 6.19835V9.58826L44.8823 0L1.34222 25.1374C0.174882 25.8101 -0.226323 27.3061 0.448581 28.4735C1.12349 29.6408 2.61729 30.0409 3.78463 29.3671L44.8823 5.63886L85.979 29.3682C87.1474 30.0409 88.6412 29.6408 89.3161 28.4735Z" fill="white"/>
<path d="M89.6425 71.7024H0.120972V75H89.6425V71.7024Z" fill="white"/>
<path d="M41.4353 69.1314H81.458C82.3649 69.1314 83.1068 68.3894 83.1068 67.4826V32.8328C83.1068 31.9259 82.4649 30.8124 81.679 30.3596L46.3113 9.93877C45.5254 9.4859 44.2405 9.4859 43.4545 9.93877L8.08581 30.3596C7.30099 30.8124 6.65796 31.9259 6.65796 32.8328V67.4826C6.65796 68.3894 7.39991 69.1314 8.30675 69.1314H21.7554C22.6622 69.1314 23.4042 68.3894 23.4042 67.4826V40.2006C23.4042 39.2938 24.1461 38.5519 25.0529 38.5519H38.1366C39.0435 38.5519 39.7854 39.2938 39.7854 40.2006V67.4826C39.7865 68.3905 40.5285 69.1314 41.4353 69.1314ZM51.2533 47.4366C51.2533 46.5298 51.9953 45.7878 52.9021 45.7878H70.2177C71.1245 45.7878 71.8665 46.5298 71.8665 47.4366V58.7462C71.8665 59.6531 71.1245 60.395 70.2177 60.395H52.9021C51.9953 60.395 51.2533 59.6531 51.2533 58.7462V47.4366Z" fill="white"/>
</svg>
