<svg width="52" height="52" viewBox="0 0 52 52" fill="none" xmlns="http://www.w3.org/2000/svg">
<g filter="url(#filter0_d)">
<path d="M36.5 46C35.9477 46 35.5 46.4477 35.5 47C35.5 47.5523 35.9477 48 36.5 48V46ZM48 36.5C48 35.9477 47.5523 35.5 47 35.5C46.4477 35.5 46 35.9477 46 36.5H48ZM4 15.5C4 16.0523 4.44772 16.5 5 16.5C5.55228 16.5 6 16.0523 6 15.5H4ZM15.5 6C16.0523 6 16.5 5.55228 16.5 5C16.5 4.44772 16.0523 4 15.5 4V6ZM46 46H36.5V48H46V46ZM46 36.5V46H48V36.5H46ZM6 15.5V5.99749H4V15.5H6ZM5.99749 6H15.5V4H5.99749V6ZM46 48C47.1046 48 48 47.1046 48 46H46V48ZM6 5.99749C6 5.99579 6.00015 5.99533 6.00007 5.99575C5.99999 5.99611 5.99983 5.99669 5.99957 5.9973C5.99933 5.99787 5.9991 5.99826 5.99896 5.99847C5.99883 5.99866 5.99876 5.99873 5.99874 5.99874C5.99873 5.99876 5.99866 5.99883 5.99847 5.99896C5.99826 5.9991 5.99787 5.99933 5.9973 5.99957C5.99669 5.99983 5.99612 5.99999 5.99575 6.00007C5.99533 6.00015 5.99579 6 5.99749 6V4C4.89292 4 4 4.89292 4 5.99749H6Z" fill="url(#paint0_linear)"/>
</g>
<defs>
<filter id="filter0_d" x="0" y="0" width="52" height="52" filterUnits="userSpaceOnUse" color-interpolation-filters="sRGB">
<feFlood flood-opacity="0" result="BackgroundImageFix"/>
<feColorMatrix in="SourceAlpha" type="matrix" values="0 0 0 0 0 0 0 0 0 0 0 0 0 0 0 0 0 0 127 0"/>
<feOffset/>
<feGaussianBlur stdDeviation="2"/>
<feColorMatrix type="matrix" values="0 0 0 0 1 0 0 0 0 0.822745 0 0 0 0 0.317647 0 0 0 0.35 0"/>
<feBlend mode="normal" in2="BackgroundImageFix" result="effect1_dropShadow"/>
<feBlend mode="normal" in="SourceGraphic" in2="effect1_dropShadow" result="shape"/>
</filter>
<linearGradient id="paint0_linear" x1="6.22093" y1="11.3" x2="46.0212" y2="13.3173" gradientUnits="userSpaceOnUse">
<stop stop-color="#FFD251"/>
<stop offset="1" stop-color="#FFAF51"/>
</linearGradient>
</defs>
</svg>
