<svg width="70" height="72" viewBox="0 0 70 72" fill="none" xmlns="http://www.w3.org/2000/svg">
<g filter="url(#filter0_d)">
<path d="M37.0353 66.9916L42.6151 61.4118C42.7496 61.2773 42.9513 61.2101 43.0857 61.2773L50.884 62.4874C51.0857 62.4874 51.2202 62.5546 51.4219 62.5546C53.1025 62.5546 54.5143 61.3445 54.7832 59.6639L55.9933 51.8655C55.9933 51.6639 56.1277 51.5294 56.2622 51.4622L63.321 47.8992C64.1277 47.4958 64.7328 46.7563 65.0017 45.8824C65.2706 45.0084 65.2034 44.0672 64.8 43.2605L61.237 36.2017C61.1698 36.0672 61.1698 35.8655 61.237 35.6639L64.8672 28.7395C65.2706 27.9328 65.3378 26.9916 65.0689 26.1176C64.8 25.2437 64.195 24.5714 63.3882 24.1008L56.3294 20.5378C56.195 20.4706 56.0605 20.2689 56.0605 20.1345L54.7832 12.3361C54.5143 10.6555 53.1025 9.44538 51.4219 9.44538C51.2202 9.44538 51.0857 9.44538 50.884 9.51261L43.0857 10.7227C42.884 10.7227 42.7496 10.7227 42.6151 10.5882L37.0353 5.0084C36.363 4.33613 35.5563 4 34.6151 4C33.674 4 32.8672 4.33613 32.195 5.0084L26.6151 10.5882C26.4807 10.7227 26.3462 10.7227 26.2118 10.7227H26.1445L18.3462 9.51261C18.1445 9.51261 18.0101 9.44538 17.8084 9.44538C16.1277 9.44538 14.716 10.6555 14.4471 12.3361L13.237 20.1345C13.237 20.3361 13.1025 20.4706 12.9681 20.5378L5.84202 24.1008C5.03529 24.5042 4.43025 25.2437 4.16134 26.1176C3.89244 26.9916 3.95966 27.9328 4.36303 28.7395L7.92605 35.7983C7.99328 35.9328 7.99328 36.1345 7.92605 36.3361L4.36303 43.2605C3.95966 44.0672 3.89244 45.0084 4.16134 45.8824C4.43025 46.7563 5.03529 47.4286 5.84202 47.8992L12.9008 51.4622C13.0353 51.5294 13.1697 51.7311 13.1697 51.8655L14.4471 59.6639C14.716 61.3445 16.1277 62.5546 17.8084 62.5546C18.0101 62.5546 18.1445 62.5546 18.3462 62.4874L26.1445 61.2773C26.3462 61.2773 26.4807 61.2773 26.6151 61.4118L32.195 66.9916C32.8672 67.6639 33.674 68 34.6151 68C35.5563 68 36.363 67.6639 37.0353 66.9916ZM28.6319 59.395C28.0269 58.7899 27.0857 58.3866 26.2118 58.3866C26.0101 58.3866 25.8756 58.3866 25.674 58.4538L17.8756 59.6639C17.5395 59.7311 17.2706 59.5294 17.2034 59.1933L15.9933 51.395C15.7916 50.3193 15.1193 49.3782 14.1782 48.9076L7.18655 45.3445C6.98487 45.2773 6.91765 45.0756 6.91765 45.0084C6.91765 44.9412 6.85042 44.7395 6.98487 44.605L10.5479 37.5462C11.0185 36.605 11.0185 35.395 10.5479 34.4538L6.91765 27.395C6.85042 27.1933 6.85042 27.0588 6.85042 26.9916C6.85042 26.9244 6.91765 26.7899 7.11933 26.6555L14.1782 23.0924C15.1193 22.6218 15.8588 21.6807 15.9933 20.605L17.2034 12.8067C17.2706 12.5378 17.5395 12.2689 17.8756 12.3361L25.674 13.5462C25.8756 13.5462 26.0101 13.6134 26.2118 13.6134C27.0857 13.6134 27.9597 13.2773 28.6319 12.605L34.2118 7.02521C34.3462 6.89076 34.5479 6.89076 34.6151 6.89076C34.6824 6.89076 34.884 6.89076 35.0185 7.02521L40.5983 12.605C41.3378 13.3445 42.4807 13.7479 43.5563 13.5462L51.3546 12.3361C51.6908 12.2689 51.9597 12.4706 52.0269 12.8067L53.237 20.605C53.4387 21.6807 54.1109 22.6218 55.0521 23.0924L62.1109 26.6555C62.3126 26.7227 62.3798 26.9244 62.3798 26.9916C62.3798 27.0588 62.4471 27.2605 62.3126 27.395L58.7496 34.4538C58.279 35.395 58.279 36.605 58.7496 37.5462L62.3126 44.605C62.3798 44.8067 62.3798 44.9412 62.3798 45.0084C62.3798 45.0756 62.3126 45.2101 62.1109 45.3445L55.0521 48.9076C54.1109 49.3782 53.3714 50.3193 53.237 51.395L52.0269 59.1933C51.9597 59.4622 51.6908 59.7311 51.3546 59.6639L43.5563 58.4538C42.4807 58.2521 41.3378 58.6555 40.5983 59.395L35.0185 64.9748C34.884 65.1092 34.6824 65.1092 34.6151 65.1092C34.5479 65.1092 34.3462 65.1092 34.2118 64.9748L28.6319 59.395ZM47.8588 43.7311L49.5395 33.042C49.5395 32.9748 49.5395 32.9076 49.5395 32.8403C49.5395 30.2185 47.3882 28.0672 44.7664 28.0672H39.1193V24.2353C39.1193 22.084 38.4471 20.4706 37.1698 19.5294C35.1529 18.0504 32.5983 18.7899 32.2622 18.9244C31.6571 19.1261 31.2538 19.6639 31.2538 20.2689V25.3782C31.2538 28.874 27.0857 30.084 26.884 30.1513C26.8168 30.1513 26.7496 30.2185 26.6824 30.2185C26.279 29.8824 25.7412 29.7479 25.1361 29.7479H21.3714C19.8924 29.7479 18.6824 30.958 18.6824 32.437V45.2101C18.6824 46.6891 19.8924 47.8992 21.3714 47.8992H25.1361C25.7412 47.8992 26.3462 47.6975 26.7496 47.3613C27.5563 48.0336 28.5647 48.3698 29.7076 48.3698H42.2118C45.4387 48.3025 47.5227 46.6218 47.8588 43.7311ZM25.0689 45.0084H21.7076V32.5714H25.0689V45.0084ZM27.9597 43.5294V32.8403C28.9681 32.5042 34.2118 30.5546 34.2118 25.3782V21.479C34.6824 21.479 35.2202 21.5462 35.5563 21.8151C36.2286 22.2857 36.363 23.3613 36.363 24.1681V29.479C36.363 30.2857 37.0353 30.8908 37.7748 30.8908H44.8336C45.842 30.8908 46.716 31.6975 46.7832 32.7059L45.1025 43.2605C45.1025 43.2605 45.1025 43.2605 45.1025 43.3277C45.0353 43.9328 44.8336 45.4118 42.4134 45.4118H29.842C28.8336 45.479 27.9597 44.605 27.9597 43.5294Z" fill="url(#paint0_linear)"/>
</g>
<defs>
<filter id="filter0_d" x="0" y="0" width="69.2303" height="72" filterUnits="userSpaceOnUse" color-interpolation-filters="sRGB">
<feFlood flood-opacity="0" result="BackgroundImageFix"/>
<feColorMatrix in="SourceAlpha" type="matrix" values="0 0 0 0 0 0 0 0 0 0 0 0 0 0 0 0 0 0 127 0"/>
<feOffset/>
<feGaussianBlur stdDeviation="2"/>
<feColorMatrix type="matrix" values="0 0 0 0 1 0 0 0 0 0.822745 0 0 0 0 0.317647 0 0 0 0.35 0"/>
<feBlend mode="normal" in2="BackgroundImageFix" result="effect1_dropShadow"/>
<feBlend mode="normal" in="SourceGraphic" in2="effect1_dropShadow" result="shape"/>
</filter>
<linearGradient id="paint0_linear" x1="5.77995" y1="13.6" x2="63.8159" y2="16.4143" gradientUnits="userSpaceOnUse">
<stop stop-color="#FFD251"/>
<stop offset="1" stop-color="#FFAF51"/>
</linearGradient>
</defs>
</svg>
