<svg width="65" height="72" viewBox="0 0 65 72" fill="none" xmlns="http://www.w3.org/2000/svg">
<g filter="url(#filter0_d)">
<path d="M60.817 40.1397C60.8856 40.9365 60.779 41.7386 60.5049 42.4899C60.2308 43.2412 59.7957 43.9234 59.2302 44.4889L44.2105 59.5086C43.1378 60.5723 41.8658 61.4141 40.4673 61.9856C39.0689 62.5571 37.5714 62.8471 36.0607 62.839H17.5146L12.8194 67.5212C12.5128 67.8278 12.097 68 11.6635 68C11.23 68 10.8142 67.8278 10.5076 67.5212C10.2011 67.2147 10.0289 66.7989 10.0289 66.3654C10.0289 65.9318 10.2011 65.5161 10.5076 65.2095L15.6666 60.0506C15.8185 59.8991 15.9987 59.779 16.1971 59.6972C16.3954 59.6154 16.6079 59.5735 16.8224 59.5739H36.0607C37.1524 59.5784 38.2341 59.366 39.2431 58.949C40.252 58.5319 41.168 57.9186 41.9379 57.1446L56.9576 42.1249C57.3532 41.7031 57.5693 41.144 57.56 40.5659C57.5508 39.9877 57.317 39.4358 56.9081 39.0269C56.4992 38.618 55.9473 38.3842 55.3691 38.3749C54.7909 38.3657 54.2318 38.5817 53.81 38.9773L41.9575 50.9539L41.9184 50.9865C40.898 51.9975 39.5214 52.5674 38.0851 52.5734H26.6244C26.1914 52.5734 25.7762 52.4014 25.47 52.0952C25.1638 51.789 24.9918 51.3738 24.9918 50.9408C24.9918 50.5078 25.1638 50.0926 25.47 49.7864C25.7762 49.4802 26.1914 49.3082 26.6244 49.3082H38.0916C38.5935 49.3058 39.0798 49.1334 39.4712 48.8192C39.8626 48.5049 40.1359 48.0673 40.2466 47.5777C40.3179 47.2552 40.316 46.9207 40.2409 46.5991C40.1657 46.2774 40.0194 45.9767 39.8126 45.7191C39.6058 45.4615 39.3438 45.2536 39.0459 45.1108C38.7481 44.9679 38.4219 44.8938 38.0916 44.8937H18.3113C17.4052 44.8911 16.5076 45.0681 15.6703 45.4144C14.833 45.7608 14.0727 46.2696 13.4332 46.9116L10.5468 49.7915C10.4002 49.9622 10.2199 50.1007 10.0172 50.1984C9.81455 50.2961 9.59386 50.3509 9.36901 50.3592C9.14416 50.3676 8.92002 50.3294 8.71063 50.247C8.50125 50.1646 8.31116 50.0399 8.15228 49.8805C7.99341 49.7212 7.86918 49.5308 7.7874 49.3212C7.70562 49.1115 7.66805 48.8873 7.67706 48.6625C7.68606 48.4376 7.74144 48.2171 7.83971 48.0147C7.93799 47.8123 8.07704 47.6324 8.24815 47.4863L11.1345 44.6064C12.0756 43.6599 13.195 42.9093 14.428 42.3982C15.661 41.887 16.9831 41.6255 18.3179 41.6286H38.0916C39.1743 41.6253 40.2333 41.9456 41.1327 42.5483C42.0321 43.151 42.7309 44.0087 43.1395 45.0113L51.4591 36.6917C52.201 35.9499 53.1397 35.4361 54.1644 35.2111C55.1891 34.9861 56.2567 35.0593 57.2411 35.422C58.2255 35.7847 59.0854 36.4218 59.7191 37.2578C60.3528 38.0939 60.7338 39.0939 60.817 40.1397ZM47.7564 18.5897C47.5576 18.0824 47.2568 17.6214 46.8727 17.235C46.4885 16.8486 46.0292 16.5451 45.5231 16.3433L41.3241 14.6846L40.5143 10.244C40.4168 9.70715 40.2096 9.19619 39.9057 8.74299C39.6018 8.28979 39.2078 7.90409 38.7482 7.60996C38.2886 7.31583 37.7734 7.11958 37.2346 7.03347C36.6958 6.94735 36.145 6.97322 35.6166 7.10946L31.2348 8.21308L27.9696 5.09813C27.5755 4.72193 27.1081 4.4309 26.5965 4.24314C26.085 4.05539 25.5403 3.97494 24.9963 4.00679C24.4524 4.03864 23.9208 4.18212 23.4347 4.4283C22.9486 4.67447 22.5183 5.01807 22.1707 5.4377L19.2974 8.91835L14.8242 8.31756C14.2835 8.24474 13.7337 8.28411 13.209 8.43319C12.6843 8.58228 12.1959 8.83789 11.7743 9.18409C11.3528 9.53028 11.0071 9.95963 10.7588 10.4453C10.5105 10.9311 10.365 11.4627 10.3313 12.0072L10.0505 16.5131L6.06703 18.655C5.59215 18.9144 5.1753 19.2682 4.84209 19.6945C4.50887 20.1209 4.26632 20.6108 4.12934 21.1343C3.99235 21.6578 3.96381 22.2038 4.04548 22.7387C4.12715 23.2736 4.31729 23.7862 4.60424 24.245L7.02698 28.0586L5.06789 32.127C4.83154 32.6188 4.69909 33.154 4.6788 33.6993C4.65851 34.2445 4.75082 34.7881 4.94997 35.2961C5.14912 35.8041 5.45083 36.2656 5.83628 36.6517C6.22173 37.0379 6.68264 37.3405 7.19024 37.5406L12.2316 39.5324C12.431 39.6113 12.644 39.6501 12.8584 39.6467C13.0728 39.6433 13.2844 39.5977 13.4812 39.5125C13.678 39.4273 13.856 39.3042 14.0052 39.1502C14.1544 38.9961 14.2718 38.8143 14.3507 38.6149C14.4296 38.4155 14.4685 38.2025 14.465 37.9881C14.4616 37.7737 14.416 37.5621 14.3308 37.3653C14.2456 37.1685 14.1225 36.9905 13.9685 36.8413C13.8145 36.6921 13.6326 36.5747 13.4332 36.4958L8.39182 34.504C8.30171 34.4687 8.21986 34.4151 8.15135 34.3467C8.08285 34.2783 8.02916 34.1965 7.99363 34.1065C7.9581 34.0164 7.94149 33.92 7.94483 33.8233C7.94817 33.7265 7.9714 33.6315 8.01306 33.5441L10.3574 28.6594C10.4775 28.4099 10.5321 28.1339 10.5161 27.8574C10.5001 27.581 10.414 27.3131 10.266 27.0791L7.36003 22.5079C7.30809 22.4261 7.27356 22.3345 7.2586 22.2387C7.24364 22.143 7.24856 22.0452 7.27307 21.9514C7.29758 21.8577 7.34115 21.77 7.40105 21.6938C7.46095 21.6177 7.53591 21.5547 7.62124 21.5088L12.3949 18.9358C12.6352 18.8069 12.8394 18.6198 12.9889 18.3917C13.1383 18.1635 13.2282 17.9016 13.2504 17.6298L13.5899 12.2227C13.5951 12.1258 13.6205 12.031 13.6643 11.9444C13.7082 11.8579 13.7696 11.7814 13.8446 11.7198C13.9187 11.6568 14.0053 11.6102 14.0988 11.5831C14.1922 11.5561 14.2903 11.5493 14.3866 11.5631L19.7611 12.288C20.0357 12.3266 20.3156 12.294 20.574 12.1934C20.8324 12.0927 21.0607 11.9274 21.2369 11.7133L24.6914 7.53393C24.7533 7.45922 24.8299 7.39809 24.9165 7.35433C25.003 7.31058 25.0977 7.28515 25.1945 7.27963C25.2914 7.27412 25.3883 7.28863 25.4793 7.32227C25.5702 7.35592 25.6533 7.40796 25.7232 7.47515L29.6414 11.217C29.8419 11.4089 30.0882 11.5462 30.3569 11.6159C30.6255 11.6856 30.9075 11.6854 31.176 11.6154L36.4003 10.2636C36.4939 10.2396 36.5915 10.2351 36.6869 10.2504C36.7823 10.2657 36.8736 10.3005 36.9551 10.3525C37.0365 10.4046 37.1064 10.4728 37.1603 10.553C37.2143 10.6332 37.2512 10.7236 37.2688 10.8187L38.2875 16.1409C38.3369 16.4141 38.4552 16.6703 38.6311 16.8851C38.8071 17.1 39.035 17.2663 39.2932 17.3686L44.3346 19.3603C44.4227 19.3988 44.502 19.4549 44.5676 19.5251C44.6333 19.5954 44.6838 19.6783 44.7162 19.7688C44.7487 19.8593 44.7622 19.9555 44.7561 20.0515C44.75 20.1474 44.7243 20.2411 44.6807 20.3268L42.3363 25.2114C42.2163 25.461 42.1617 25.737 42.1777 26.0134C42.1936 26.2899 42.2797 26.5577 42.4277 26.7918L45.3337 31.363C45.3856 31.4448 45.4202 31.5364 45.4351 31.6321C45.4501 31.7279 45.4452 31.8257 45.4207 31.9194C45.3961 32.0132 45.3526 32.1009 45.2927 32.177C45.2328 32.2532 45.1578 32.3162 45.0725 32.3621L40.2988 34.935C40.1034 35.0328 39.9295 35.1688 39.7875 35.335C39.6456 35.5012 39.5385 35.6942 39.4725 35.9026C39.4066 36.111 39.3831 36.3305 39.4036 36.5481C39.4241 36.7657 39.488 36.977 39.5917 37.1694C39.6953 37.3619 39.8365 37.5315 40.007 37.6684C40.1774 37.8052 40.3736 37.9064 40.5839 37.966C40.7942 38.0256 41.0143 38.0423 41.2312 38.0153C41.4481 37.9882 41.6573 37.9178 41.8465 37.8084L46.6202 35.2354C47.0987 34.9762 47.5188 34.6214 47.8545 34.193C48.1901 33.7646 48.4341 33.2718 48.5713 32.7451C48.7084 32.2184 48.7359 31.6692 48.6519 31.1315C48.5679 30.5938 48.3742 30.0791 48.083 29.6194L45.6602 25.8057L47.6193 21.7373C47.8556 21.246 47.9886 20.7114 48.0099 20.1666C48.0313 19.6218 47.9405 19.0784 47.7434 18.5701L47.7564 18.5897ZM26.3371 34.9155C25.7519 34.9164 25.1796 34.7438 24.6926 34.4195C24.2056 34.0952 23.8256 33.6338 23.6009 33.0935C23.5177 32.8958 23.3964 32.7165 23.2439 32.5657C23.0914 32.4149 22.9107 32.2956 22.7121 32.2147C22.5135 32.1337 22.3009 32.0927 22.0864 32.0939C21.872 32.0951 21.6599 32.1385 21.4622 32.2217C21.2645 32.3049 21.0852 32.4262 20.9344 32.5787C20.7836 32.7312 20.6643 32.9119 20.5834 33.1105C20.5024 33.3091 20.4614 33.5217 20.4626 33.7361C20.4638 33.9506 20.5072 34.1627 20.5904 34.3604C21.0638 35.4936 21.8623 36.4611 22.885 37.141C23.9078 37.8209 25.109 38.1826 26.3371 38.1806C29.8896 38.1806 32.567 35.6664 32.567 32.3033C32.567 30.6446 31.8095 27.6864 26.7615 26.511H26.7093C23.3788 25.7535 23.3788 24.3494 23.3788 23.8988C23.3788 22.1291 24.9135 21.2867 26.3436 21.2867C26.928 21.2852 27.4998 21.4568 27.9867 21.7799C28.4737 22.103 28.854 22.5631 29.0798 23.1022C29.158 23.3062 29.2765 23.4925 29.4281 23.65C29.5796 23.8074 29.7613 23.9328 29.9623 24.0187C30.1632 24.1047 30.3794 24.1494 30.5979 24.1502C30.8165 24.151 31.033 24.108 31.2346 24.0236C31.4362 23.9392 31.6188 23.8152 31.7716 23.6589C31.9244 23.5026 32.0442 23.3172 32.124 23.1137C32.2038 22.9102 32.2419 22.6928 32.2362 22.4743C32.2304 22.2559 32.1807 22.0408 32.0903 21.8418C31.724 20.9689 31.1628 20.1915 30.4497 19.5689C29.7366 18.9464 28.8905 18.4953 27.9762 18.2501V17.1008C27.9762 16.6678 27.8042 16.2526 27.498 15.9464C27.1918 15.6402 26.7766 15.4682 26.3436 15.4682C25.9106 15.4682 25.4954 15.6402 25.1892 15.9464C24.883 16.2526 24.711 16.6678 24.711 17.1008V18.2697C23.4161 18.5428 22.2547 19.2535 21.4222 20.2822C20.5897 21.311 20.1368 22.595 20.1398 23.9184C20.1398 25.5771 20.8973 28.5354 25.9453 29.7108H25.9975C29.3279 30.4749 29.3279 31.8723 29.3279 32.3229C29.2888 34.1188 27.7541 34.922 26.324 34.922L26.3371 34.9155Z" fill="url(#paint0_linear)"/>
</g>
<defs>
<filter id="filter0_d" x="0" y="0" width="64.8372" height="72" filterUnits="userSpaceOnUse" color-interpolation-filters="sRGB">
<feFlood flood-opacity="0" result="BackgroundImageFix"/>
<feColorMatrix in="SourceAlpha" type="matrix" values="0 0 0 0 0 0 0 0 0 0 0 0 0 0 0 0 0 0 127 0"/>
<feOffset/>
<feGaussianBlur stdDeviation="2"/>
<feColorMatrix type="matrix" values="0 0 0 0 1 0 0 0 0 0.822745 0 0 0 0 0.317647 0 0 0 0.35 0"/>
<feBlend mode="normal" in2="BackgroundImageFix" result="effect1_dropShadow"/>
<feBlend mode="normal" in="SourceGraphic" in2="effect1_dropShadow" result="shape"/>
</filter>
<linearGradient id="paint0_linear" x1="5.65224" y1="13.6" x2="59.5418" y2="16.0257" gradientUnits="userSpaceOnUse">
<stop stop-color="#FFD251"/>
<stop offset="1" stop-color="#FFAF51"/>
</linearGradient>
</defs>
</svg>
