<svg width="63" height="72" viewBox="0 0 63 72" fill="none" xmlns="http://www.w3.org/2000/svg">
<g filter="url(#filter0_d)">
<path d="M4.86266 44.202L5.3556 44.4095C6.95443 45.0894 8.24725 46.3338 8.98774 47.9055L9.13043 48.2038L6.65927 50.1042C5.88964 50.6892 5.34216 51.5188 5.10699 52.4565C4.87182 53.3942 4.96298 54.384 5.36546 55.263C5.76794 56.1419 6.45774 56.8576 7.32127 57.2922C8.1848 57.7268 9.17058 57.8543 10.1163 57.6539C10.2021 58.2651 10.4192 58.8504 10.7528 59.3697C11.0863 59.889 11.5284 60.3299 12.0485 60.6621C12.5687 60.9943 13.1546 61.2099 13.766 61.2941C14.3775 61.3783 14.9999 61.3291 15.5904 61.1498C15.698 61.727 15.924 62.2755 16.2542 62.761C16.5844 63.2464 17.0116 63.6581 17.5089 63.9701C18.0062 64.2822 18.5628 64.4877 19.1435 64.5739C19.7242 64.66 20.3165 64.6249 20.883 64.4706C21.0079 65.1762 21.3081 65.839 21.7561 66.3982C22.2041 66.9574 22.7855 67.395 23.4468 67.6708C24.1081 67.9465 24.8282 68.0516 25.5407 67.9764C26.2533 67.9011 26.9355 67.6479 27.5246 67.2401L30.4757 65.1906C30.9581 65.673 31.6003 65.9624 32.2812 66.0042C32.9622 66.046 33.6349 65.8374 34.1727 65.4176L34.2895 65.3268C34.5895 65.0921 34.8381 64.7983 35.02 64.4636C35.2018 64.1289 35.313 63.7604 35.3467 63.381C35.8305 63.6883 36.3976 63.8384 36.9702 63.8105C37.5427 63.7826 38.0926 63.5782 38.5443 63.2253L38.7259 63.0826C39.1325 62.7619 39.441 62.3336 39.6164 61.8463C39.7918 61.3591 39.8271 60.8324 39.7182 60.3261C40.2001 60.6429 40.7693 60.8001 41.3455 60.7757C41.9216 60.7513 42.4755 60.5463 42.9288 60.1899L43.1947 59.9823C43.6517 59.6329 43.9876 59.149 44.1551 58.5986C44.3227 58.0483 44.3134 57.4593 44.1287 56.9145C44.6075 57.2858 45.1962 57.4873 45.8021 57.4873C46.408 57.4873 46.9966 57.2858 47.4754 56.9145L47.8062 56.655C48.0934 56.4302 48.3327 56.1502 48.5101 55.8315C48.6875 55.5128 48.7995 55.1619 48.8394 54.7993C48.8792 54.4368 48.8463 54.0699 48.7423 53.7203C48.6384 53.3707 48.4657 53.0454 48.2343 52.7635L48.1435 52.6532L57.7232 46.2451C57.9103 46.1158 58.0623 45.942 58.1653 45.7393C58.2684 45.5366 58.3193 45.3114 58.3135 45.0841V24.4587C58.313 24.2253 58.2529 23.9958 58.1387 23.7922C58.0246 23.5885 57.8602 23.4175 57.6613 23.2953C57.4624 23.1731 57.2356 23.1038 57.0023 23.094C56.7691 23.0842 56.5372 23.1343 56.3288 23.2394L47.0603 27.9093C45.3224 28.7918 43.4054 29.2644 41.4565 29.2908L32.6615 29.401L30.9687 28.5708C29.2446 27.7236 27.2978 27.44 25.4037 27.7601L23.3736 28.1103C20.8641 28.5344 18.2851 28.2002 15.9666 27.1504L5.99771 22.6102C5.78162 22.5123 5.54435 22.4703 5.30777 22.4881C5.07118 22.5059 4.84288 22.583 4.6439 22.7122C4.44492 22.8414 4.28165 23.0186 4.16913 23.2275C4.05661 23.4363 3.99846 23.6702 4.00003 23.9074V42.9048C4.00098 43.1817 4.08324 43.4523 4.23659 43.6829C4.38994 43.9135 4.60764 44.094 4.86266 44.202ZM29.5612 35.9454L35.1975 38.1182L37.5584 44.5457C37.8279 45.1544 38.3104 45.6436 38.9152 45.9215C39.52 46.1994 40.2055 46.2468 40.8428 46.0548C41.4801 45.8628 42.0254 45.4446 42.3761 44.8789C42.7267 44.3132 42.8587 43.6388 42.7472 42.9826L41.45 36.4967C41.2682 35.5521 40.8704 34.6625 40.2875 33.8973C39.7046 33.1322 38.9526 32.5123 38.0902 32.0862L41.5019 32.0408C43.8704 32.0083 46.2001 31.4337 48.3121 30.3609L55.5959 26.7029V44.3641L46.3923 50.5258L45.9642 50.0004C45.5221 49.4626 44.8917 49.1134 44.2013 49.0239C43.5108 48.9345 42.8122 49.1115 42.2477 49.519C41.6832 49.9265 41.2952 50.5338 41.1626 51.2173C41.0301 51.9008 41.163 52.6091 41.5343 53.198L42.1245 54.1644L42.0078 54.0152C41.5906 53.4132 40.9514 53.0015 40.2307 52.8707C39.51 52.74 38.7669 52.9009 38.1648 53.318C37.5628 53.7351 37.1511 54.3744 37.0203 55.0951C36.8896 55.8158 37.0504 56.5589 37.4676 57.1609L37.6427 57.4074C37.2127 57.0834 36.6974 56.8921 36.1602 56.857C35.623 56.8219 35.0872 56.9445 34.6187 57.2097C34.1502 57.475 33.7694 57.8713 33.5231 58.3501C33.2767 58.8288 33.1757 59.3691 33.2323 59.9045C32.7805 59.677 32.2754 59.5767 31.7709 59.6142C31.2665 59.6517 30.7818 59.8257 30.3687 60.1176C29.9556 60.4094 29.6296 60.8081 29.4256 61.271C29.2217 61.7339 29.1475 62.2435 29.211 62.7454L25.968 64.996C25.648 65.2167 25.2566 65.3086 24.8718 65.2533C24.487 65.198 24.1373 64.9995 23.8925 64.6976C23.7648 64.5393 23.6699 64.3571 23.6132 64.1618C23.5564 63.9665 23.539 63.7619 23.5619 63.5598C23.5849 63.3577 23.6477 63.1621 23.7467 62.9845C23.8458 62.8068 23.9791 62.6506 24.1389 62.5248L28.1992 59.7034C28.3465 59.5995 28.4719 59.4676 28.5683 59.3152C28.6647 59.1628 28.7301 58.9929 28.7608 58.8153C28.7915 58.6376 28.787 58.4556 28.7473 58.2797C28.7077 58.1038 28.6339 57.9374 28.5299 57.7901C28.426 57.6427 28.2941 57.5173 28.1417 57.4209C27.9893 57.3245 27.8194 57.2591 27.6418 57.2284C27.4641 57.1977 27.2821 57.2023 27.1062 57.2419C26.9303 57.2815 26.7639 57.3554 26.6166 57.4593L20.643 61.6168C20.323 61.8375 19.9316 61.9294 19.5468 61.8741C19.1621 61.8188 18.8123 61.6204 18.5675 61.3184C18.4399 61.1587 18.3455 60.9751 18.2897 60.7784C18.2339 60.5817 18.218 60.3759 18.2427 60.1729C18.2675 59.97 18.3325 59.7741 18.4339 59.5965C18.5354 59.419 18.6712 59.2635 18.8334 59.1392L26.2274 53.9958C26.5267 53.7894 26.7318 53.4725 26.7975 53.1149C26.8631 52.7573 26.7841 52.3882 26.5777 52.0889C26.3712 51.7896 26.0544 51.5846 25.6968 51.5189C25.3392 51.4532 24.9701 51.5323 24.6708 51.7387L15.2143 58.3349C14.8943 58.5556 14.5028 58.6475 14.1181 58.5922C13.7333 58.5369 13.3836 58.3385 13.1387 58.0365C13.0105 57.8776 12.9151 57.6947 12.8583 57.4985C12.8015 57.3023 12.7844 57.0967 12.808 56.8938C12.8315 56.6909 12.8953 56.4948 12.9955 56.3168C13.0957 56.1388 13.2304 55.9826 13.3917 55.8573L13.4566 55.7989L24.1714 48.4762C24.4535 48.2647 24.6432 47.9524 24.7007 47.6044C24.7582 47.2565 24.6792 46.8998 24.4801 46.6087C24.281 46.3176 23.9772 46.1146 23.6321 46.042C23.287 45.9694 22.9272 46.0329 22.6277 46.2191L10.1487 54.7482C9.82876 54.9689 9.4373 55.0608 9.05254 55.0055C8.66778 54.9502 8.31805 54.7517 8.07321 54.4498C7.94492 54.2909 7.84959 54.1079 7.7928 53.9117C7.736 53.7155 7.71888 53.51 7.74243 53.3071C7.76598 53.1042 7.82973 52.908 7.92996 52.73C8.03019 52.5521 8.16488 52.3959 8.32617 52.2705L29.5612 35.9454ZM15.2921 7.71197C15.2262 7.64677 15.1803 7.5641 15.1599 7.47371C15.1394 7.38331 15.1452 7.28894 15.1765 7.20172C15.2078 7.11449 15.2635 7.03804 15.3368 6.98135C15.4101 6.92467 15.4981 6.89012 15.5904 6.88177L18.0681 6.51855L19.1772 4.27441C19.217 4.19217 19.2792 4.1228 19.3566 4.07427C19.4341 4.02574 19.5236 4 19.615 4C19.7064 4 19.7959 4.02574 19.8733 4.07427C19.9508 4.1228 20.013 4.19217 20.0528 4.27441L21.1619 6.51855L23.6395 6.88177C23.7297 6.89432 23.8145 6.93191 23.8844 6.99027C23.9542 7.04863 24.0063 7.12542 24.0347 7.21191C24.063 7.29839 24.0666 7.39111 24.0449 7.47951C24.0232 7.56791 23.9771 7.64845 23.9119 7.71197L22.0764 9.46318L22.498 11.9278C22.5134 12.0174 22.5034 12.1095 22.4691 12.1937C22.4348 12.2779 22.3777 12.3508 22.3041 12.4042C22.2304 12.4575 22.1434 12.4892 22.0527 12.4955C21.962 12.5019 21.8714 12.4828 21.791 12.4402L19.5728 11.2728L17.3546 12.4402C17.2743 12.4828 17.1836 12.5019 17.093 12.4955C17.0023 12.4892 16.9152 12.4575 16.8416 12.4042C16.768 12.3508 16.7108 12.2779 16.6765 12.1937C16.6423 12.1095 16.6322 12.0174 16.6477 11.9278L17.0692 9.46318L15.2921 7.71197ZM27.3625 7.71197C27.2973 7.64845 27.2512 7.56791 27.2295 7.47951C27.2078 7.39111 27.2114 7.29839 27.2397 7.21191C27.2681 7.12542 27.3202 7.04863 27.39 6.99027C27.4599 6.93191 27.5447 6.89432 27.6349 6.88177L30.1125 6.51855L31.2216 4.27441C31.2614 4.19217 31.3236 4.1228 31.4011 4.07427C31.4785 4.02574 31.568 4 31.6594 4C31.7508 4 31.8403 4.02574 31.9178 4.07427C31.9952 4.1228 32.0574 4.19217 32.0972 4.27441L33.2063 6.51855L35.6969 6.88177C35.7871 6.89432 35.8719 6.93191 35.9417 6.99027C36.0116 7.04863 36.0637 7.12542 36.0921 7.21191C36.1204 7.29839 36.124 7.39111 36.1023 7.47951C36.0806 7.56791 36.0345 7.64845 35.9693 7.71197L34.1598 9.46318L34.5813 11.9278C34.5967 12.0174 34.5867 12.1095 34.5525 12.1937C34.5182 12.2779 34.461 12.3508 34.3874 12.4042C34.3138 12.4575 34.2267 12.4892 34.136 12.4955C34.0454 12.5019 33.9547 12.4828 33.8744 12.4402L31.6562 11.2728L29.438 12.4402C29.3576 12.4828 29.267 12.5019 29.1763 12.4955C29.0856 12.4892 28.9985 12.4575 28.9249 12.4042C28.8513 12.3508 28.7942 12.2779 28.7599 12.1937C28.7256 12.1095 28.7156 12.0174 28.731 11.9278L29.1526 9.46318L27.3625 7.71197ZM39.4328 7.71197C39.3676 7.64845 39.3216 7.56791 39.2999 7.47951C39.2782 7.39111 39.2817 7.29839 39.3101 7.21191C39.3385 7.12542 39.3906 7.04863 39.4604 6.99027C39.5303 6.93191 39.6151 6.89432 39.7052 6.88177L42.1829 6.52504L43.292 4.2809C43.3318 4.19865 43.394 4.12929 43.4714 4.08076C43.5489 4.03223 43.6384 4.00649 43.7298 4.00649C43.8212 4.00649 43.9107 4.03223 43.9881 4.08076C44.0656 4.12929 44.1278 4.19865 44.1676 4.2809L45.2767 6.52504L47.7543 6.88825C47.8426 6.90267 47.9252 6.94116 47.9931 6.9995C48.0609 7.05783 48.1114 7.13375 48.1389 7.21889C48.1663 7.30404 48.1698 7.39512 48.1489 7.48211C48.128 7.5691 48.0835 7.64864 48.0202 7.71197L46.2301 9.46318L46.6517 11.9278C46.6671 12.0174 46.6571 12.1095 46.6228 12.1937C46.5886 12.2779 46.5314 12.3508 46.4578 12.4042C46.3842 12.4575 46.2971 12.4892 46.2064 12.4955C46.1157 12.5019 46.0251 12.4828 45.9447 12.4402L43.7265 11.2728L41.5343 12.4402C41.4539 12.4828 41.3633 12.5019 41.2726 12.4955C41.1819 12.4892 41.0949 12.4575 41.0213 12.4042C40.9477 12.3508 40.8905 12.2779 40.8562 12.1937C40.8219 12.1095 40.8119 12.0174 40.8273 11.9278L41.2489 9.46318L39.4328 7.71197ZM21.5964 18.2387L24.0741 17.8755L25.1832 15.6313C25.223 15.5491 25.2852 15.4797 25.3626 15.4312C25.4401 15.3827 25.5296 15.3569 25.621 15.3569C25.7124 15.3569 25.8019 15.3827 25.8793 15.4312C25.9568 15.4797 26.019 15.5491 26.0588 15.6313L27.1679 17.8755L29.6455 18.2387C29.7357 18.2512 29.8205 18.2888 29.8904 18.3472C29.9602 18.4056 30.0123 18.4823 30.0407 18.5688C30.069 18.6553 30.0726 18.748 30.0509 18.8364C30.0292 18.9248 29.9831 19.0054 29.9179 19.0689L28.1278 20.8136L28.5494 23.2783C28.5648 23.3679 28.5548 23.46 28.5205 23.5442C28.4862 23.6284 28.4291 23.7013 28.3555 23.7546C28.2819 23.8079 28.1948 23.8396 28.1041 23.846C28.0134 23.8524 27.9228 23.8332 27.8424 23.7907L25.6242 22.6232L23.3736 23.7972C23.2958 23.8253 23.212 23.8331 23.1304 23.8198C23.0487 23.8065 22.9717 23.7726 22.9068 23.7213C22.8419 23.67 22.7911 23.603 22.7593 23.5266C22.7275 23.4502 22.7157 23.367 22.725 23.2848L23.1466 20.8201L21.3565 19.0754C21.2899 19.0143 21.2416 18.9358 21.2171 18.8488C21.1926 18.7618 21.1928 18.6697 21.2177 18.5828C21.2427 18.4959 21.2913 18.4177 21.3582 18.3569C21.4251 18.2961 21.5076 18.2552 21.5964 18.2387ZM33.6668 18.2387L36.1445 17.8755L37.2536 15.6313C37.2934 15.5491 37.3556 15.4797 37.433 15.4312C37.5104 15.3827 37.6 15.3569 37.6914 15.3569C37.7827 15.3569 37.8723 15.3827 37.9497 15.4312C38.0271 15.4797 38.0893 15.5491 38.1292 15.6313L39.2383 17.8755L41.7159 18.2387C41.806 18.2512 41.8909 18.2888 41.9607 18.3472C42.0306 18.4056 42.0826 18.4823 42.111 18.5688C42.1394 18.6553 42.1429 18.748 42.1213 18.8364C42.0996 18.9248 42.0535 19.0054 41.9883 19.0689L40.1982 20.8136L40.6198 23.2783C40.6352 23.3679 40.6252 23.46 40.5909 23.5442C40.5566 23.6284 40.4994 23.7013 40.4258 23.7546C40.3522 23.8079 40.2651 23.8396 40.1745 23.846C40.0838 23.8524 39.9931 23.8332 39.9128 23.7907L37.6946 22.6232L35.4764 23.7907C35.3961 23.8332 35.3054 23.8524 35.2147 23.846C35.1241 23.8396 35.037 23.8079 34.9634 23.7546C34.8898 23.7013 34.8326 23.6284 34.7983 23.5442C34.764 23.46 34.754 23.3679 34.7694 23.2783L35.191 20.8136L33.4009 19.0689C33.3357 19.0054 33.2896 18.9248 33.2679 18.8364C33.2463 18.748 33.2498 18.6553 33.2782 18.5688C33.3066 18.4823 33.3586 18.4056 33.4285 18.3472C33.4983 18.2888 33.5832 18.2512 33.6733 18.2387H33.6668Z" fill="url(#paint0_linear)"/>
</g>
<defs>
<filter id="filter0_d" x="0" y="0" width="62.3139" height="72" filterUnits="userSpaceOnUse" color-interpolation-filters="sRGB">
<feFlood flood-opacity="0" result="BackgroundImageFix"/>
<feColorMatrix in="SourceAlpha" type="matrix" values="0 0 0 0 0 0 0 0 0 0 0 0 0 0 0 0 0 0 127 0"/>
<feOffset/>
<feGaussianBlur stdDeviation="2"/>
<feColorMatrix type="matrix" values="0 0 0 0 1 0 0 0 0 0.822745 0 0 0 0 0.317647 0 0 0 0.35 0"/>
<feBlend mode="normal" in2="BackgroundImageFix" result="effect1_dropShadow"/>
<feBlend mode="normal" in="SourceGraphic" in2="effect1_dropShadow" result="shape"/>
</filter>
<linearGradient id="paint0_linear" x1="5.57889" y1="13.6" x2="57.085" y2="15.8155" gradientUnits="userSpaceOnUse">
<stop stop-color="#FFD251"/>
<stop offset="1" stop-color="#FFAF51"/>
</linearGradient>
</defs>
</svg>
