<svg width="71" height="72" viewBox="0 0 71 72" fill="none" xmlns="http://www.w3.org/2000/svg">
<g filter="url(#filter0_d)">
<path d="M65.4872 51.5543C65.0267 51.5543 64.6518 51.8043 64.6189 52.074L64.5202 52.9029C64.4741 53.1857 64.4018 53.4686 64.3426 53.7646C64.2077 54.3773 64.0364 54.9814 63.8295 55.5737C63.3317 56.8981 62.652 58.1468 61.8099 59.2838C59.7899 61.9758 56.8482 63.8285 53.5476 64.4872C51.7251 64.8442 49.8485 64.8218 48.035 64.4214C46.1448 63.988 44.3715 63.1485 42.8382 61.9612C41.2418 60.7357 39.9486 59.1594 39.0586 57.3543C38.1687 55.5492 37.7058 53.5636 37.7058 51.551C37.7058 49.5385 38.1687 47.5529 39.0586 45.7478C39.9486 43.9426 41.2418 42.3664 42.8382 41.1409C44.3795 39.9424 46.1646 39.0959 48.0679 38.6609C50.6214 38.0953 53.284 38.28 55.7349 39.1927C58.1859 40.1054 60.3207 41.7071 61.8823 43.8051C62.7248 44.9442 63.4045 46.1952 63.9018 47.5218C64.1094 48.1161 64.2808 48.7224 64.4149 49.3374C64.4741 49.6335 64.5465 49.9163 64.5926 50.1992L64.6912 51.0281C64.7307 51.3241 65.1714 51.5543 65.6648 51.5346C66.1582 51.5149 66.4476 51.2715 66.4476 50.9623V50.0347C66.4476 49.7124 66.395 49.3769 66.3621 49.0348C66.287 48.3143 66.1617 47.6 65.9872 46.8969C65.5525 45.2877 64.8736 43.7547 63.9742 42.3513C61.7305 38.9165 58.2516 36.4763 54.2581 35.5362C51.8461 34.9752 49.3385 34.9661 46.9226 35.5097C44.5066 36.0533 42.2445 37.1354 40.3052 38.6754C38.3659 40.2154 36.7994 42.1735 35.7227 44.4035C34.6459 46.6335 34.0867 49.0779 34.0867 51.5543C34.0867 54.0307 34.6459 56.4751 35.7227 58.7051C36.7994 60.9352 38.3659 62.8932 40.3052 64.4332C42.2445 65.9732 44.5066 67.0554 46.9226 67.5989C49.3385 68.1425 51.8461 68.1334 54.2581 67.5724C58.2468 66.6334 61.7226 64.1985 63.9676 60.7705C64.8689 59.3673 65.55 57.8343 65.9872 56.2249C66.1613 55.5195 66.2866 54.803 66.3621 54.0804C66.3621 53.7383 66.4345 53.4226 66.4476 53.0805V52.1398C66.4411 51.8175 66.0135 51.528 65.4872 51.5543Z" fill="url(#paint0_linear)"/>
<path d="M16.8102 57.1434C16.6386 57.0791 16.4814 56.9815 16.3475 56.8564L16.2817 56.7906C12.7361 53.4555 8.70357 49.5545 4.5461 45.3971C4.21365 45.0709 4.02436 44.6261 4.01984 44.1604C3.96721 36.5756 4.01984 28.6027 4.17114 21.5574L4.30928 16.4856L4.3948 14.1042C4.40723 13.4546 4.60587 12.8221 4.96711 12.282C5.3028 11.7381 5.7897 11.3038 6.36828 11.0322C6.64217 10.9083 6.93235 10.8241 7.23004 10.7822C7.47934 10.7563 7.73066 10.7563 7.97996 10.7822L9.00617 10.8348L10.9336 10.9467C11.8151 10.9993 12.633 11.0563 13.3873 11.1177C13.3281 9.38103 13.3281 7.59832 13.3281 5.80902C13.3281 5.32924 13.5187 4.86911 13.8579 4.52985C14.1972 4.19059 14.6573 4 15.1371 4C17.7684 4 20.3997 4.03947 22.7942 4.11841H22.9324C23.3663 4.13386 23.7765 4.32028 24.0735 4.63699C24.3705 4.95371 24.5302 5.37502 24.5177 5.80902C24.4651 7.59832 24.3599 9.34813 24.2283 10.8875C27.1819 10.0652 33.2011 10.0652 36.2139 10.8875C36.1613 9.22973 36.1613 7.51938 36.1613 5.8156C36.1613 5.33582 36.3519 4.87569 36.6911 4.53643C37.0304 4.19717 37.4905 4.00658 37.9703 4.00658C40.6016 4.00658 43.2329 4.04605 45.6274 4.12499H45.7327C46.1666 4.14044 46.5768 4.32686 46.8738 4.64357C47.1708 4.96029 47.3305 5.3816 47.318 5.8156C47.272 7.6641 47.1602 9.4205 47.022 10.9927C48.5475 10.748 50.0844 10.5811 51.6268 10.4928L52.4951 10.4401H52.9425C53.2113 10.4315 53.4803 10.4513 53.745 10.4993C54.4654 10.6388 55.1275 10.991 55.6458 11.5105C56.1641 12.0299 56.5147 12.6928 56.6526 13.4135C56.6823 13.5611 56.702 13.7106 56.7118 13.8608V14.0779V14.1963V15.1568V17.1302C56.7118 22.3336 56.396 27.5305 55.7843 30.1223C55.7645 30.2013 55.4685 30.267 54.9686 30.2736C54.4686 30.2802 54.0213 30.2144 54.0213 30.1223C53.6776 28.4347 53.4577 26.7241 53.3635 25.0044C43.6802 26.1162 17.3672 26.1162 7.49974 25.0044C7.59842 30.5631 7.59842 36.5296 7.59842 42.3382C8.8344 42.1141 10.0818 41.9582 11.3349 41.8711C12.2953 41.7922 13.3281 41.7395 14.3938 41.7001L16.012 41.6606H16.3146C16.4447 41.6652 16.5744 41.6783 16.7027 41.7001C16.9638 41.7398 17.2197 41.8082 17.4658 41.904C17.9625 42.0921 18.4132 42.3844 18.7876 42.7611C19.162 43.1378 19.4515 43.5902 19.6367 44.088C19.7304 44.3343 19.7966 44.5902 19.834 44.8511C19.8559 44.9794 19.869 45.1091 19.8735 45.2392V45.5221L19.8274 47.1403C19.788 48.2257 19.7288 49.2388 19.6498 50.1992C19.5566 51.5648 19.3743 52.9228 19.1038 54.2646C23.1758 54.4093 26.6359 54.5935 29.1488 54.8172C29.3659 54.8369 29.537 55.1526 29.5567 55.6592C29.5764 56.1657 29.3922 56.6262 29.1488 56.6262C26.2807 56.8827 22.1824 57.0867 17.3474 57.2314C17.1643 57.2376 16.9817 57.2077 16.8102 57.1434Z" fill="url(#paint1_linear)"/>
<path d="M50.0809 56.8169L50.1269 56.7577L50.3111 56.5275C50.7979 55.9091 51.311 55.2842 51.8373 54.6593C53.9094 52.1595 56.2447 49.9032 57.2775 48.4625C57.1805 48.1491 57.0217 47.8583 56.8104 47.6074C56.5473 47.2324 56.3039 46.9495 56.2447 46.9495C55.0254 47.3601 53.8811 47.9667 52.8569 48.7454C51.443 49.7821 50.1616 50.9883 49.0415 52.3371C48.8441 52.5739 48.6599 52.8173 48.4692 53.0607C47.5524 52.1631 46.4195 51.5174 45.18 51.1859C45.1143 51.1859 44.8577 51.5148 44.6143 51.949C44.4571 52.1753 44.3454 52.43 44.2854 52.6989C45.0021 53.5281 45.6762 54.3931 46.3049 55.2908C46.4825 55.5605 46.6602 55.8433 46.8246 56.1394C46.9036 56.2907 46.9891 56.4354 47.0614 56.5933L47.1206 56.7117L50.0348 56.8367L50.0809 56.8169Z" fill="url(#paint2_linear)"/>
<path d="M49.5426 30.2277C49.5426 29.7672 49.4374 29.4054 49.3189 29.3857C41.8987 28.1687 19.4996 28.1818 12.0793 29.3857C11.9478 29.3857 11.8491 29.833 11.8623 30.3329C11.8754 30.8329 11.9675 31.1289 12.0793 31.1486C19.4996 32.3788 41.8987 32.3853 49.3189 31.1486C49.4768 31.1684 49.5821 30.7342 49.5426 30.2277Z" fill="url(#paint3_linear)"/>
</g>
<defs>
<filter id="filter0_d" x="0" y="0" width="70.4476" height="72" filterUnits="userSpaceOnUse" color-interpolation-filters="sRGB">
<feFlood flood-opacity="0" result="BackgroundImageFix"/>
<feColorMatrix in="SourceAlpha" type="matrix" values="0 0 0 0 0 0 0 0 0 0 0 0 0 0 0 0 0 0 127 0"/>
<feOffset/>
<feGaussianBlur stdDeviation="2"/>
<feColorMatrix type="matrix" values="0 0 0 0 1 0 0 0 0 0.822745 0 0 0 0 0.317647 0 0 0 0.35 0"/>
<feBlend mode="normal" in2="BackgroundImageFix" result="effect1_dropShadow"/>
<feBlend mode="normal" in="SourceGraphic" in2="effect1_dropShadow" result="shape"/>
</filter>
<linearGradient id="paint0_linear" x1="35.0274" y1="40.0423" x2="65.696" y2="41.5717" gradientUnits="userSpaceOnUse">
<stop stop-color="#FFD251"/>
<stop offset="1" stop-color="#FFAF51"/>
</linearGradient>
<linearGradient id="paint1_linear" x1="5.53232" y1="11.9848" x2="55.4858" y2="14.492" gradientUnits="userSpaceOnUse">
<stop stop-color="#FFD251"/>
<stop offset="1" stop-color="#FFAF51"/>
</linearGradient>
<linearGradient id="paint2_linear" x1="44.6631" y1="48.4326" x2="56.9518" y2="49.2511" gradientUnits="userSpaceOnUse">
<stop stop-color="#FFD251"/>
<stop offset="1" stop-color="#FFAF51"/>
</linearGradient>
<linearGradient id="paint3_linear" x1="12.9567" y1="29.0172" x2="40.8826" y2="43.8531" gradientUnits="userSpaceOnUse">
<stop stop-color="#FFD251"/>
<stop offset="1" stop-color="#FFAF51"/>
</linearGradient>
</defs>
</svg>
