<svg width="67" height="73" viewBox="0 0 67 73" fill="none" xmlns="http://www.w3.org/2000/svg">
<g filter="url(#filter0_d)">
<path d="M58.9484 23.8953L57.0855 25.7783C60.0024 29.6654 61.8167 34.2674 62.337 39.0993C62.8573 43.9312 62.0644 48.8139 60.0419 53.2329C58.0194 57.6518 54.8421 61.4433 50.8451 64.2076C46.8481 66.9719 42.1793 68.6067 37.3309 68.9396C36.7144 68.9798 36.1024 68.9999 35.4948 68.9999C31.7137 69.0082 27.9733 68.2193 24.5175 66.6849C21.0617 65.1504 17.9682 62.9047 15.4386 60.0943C15.153 59.7628 15.0084 59.3327 15.0357 58.896C15.063 58.4592 15.2602 58.0505 15.585 57.7573C15.9097 57.464 16.3364 57.3095 16.7736 57.3267C17.2109 57.3439 17.624 57.5315 17.9247 57.8494C22.0869 62.457 27.8931 65.2444 34.0914 65.6108C40.2898 65.9771 46.3838 63.893 51.0598 59.8078C55.7358 55.7226 58.6191 49.9635 59.0882 43.7721C59.5573 37.5807 57.5746 31.4529 53.5675 26.7098C53.2946 26.3887 53.1526 25.9766 53.17 25.5556C53.1874 25.1346 53.3628 24.7356 53.6613 24.4381L56.5829 21.5165C56.787 21.2908 56.8965 20.9953 56.8889 20.6912C56.8813 20.387 56.757 20.0974 56.5419 19.8823C56.3267 19.6671 56.0371 19.5429 55.733 19.5353C55.4288 19.5276 55.1334 19.6372 54.9077 19.8412L51.8721 22.8768C51.5867 23.1621 51.2079 23.3348 50.8053 23.3631C50.4027 23.3914 50.0034 23.2735 49.6809 23.0309C46.3189 20.5095 42.3445 18.9317 38.1685 18.4608C37.7586 18.4163 37.3795 18.2221 37.1037 17.9155C36.828 17.6089 36.6751 17.2113 36.6742 16.799V11.3979C36.6706 11.1757 36.7113 10.955 36.7939 10.7486C36.8765 10.5422 36.9994 10.3544 37.1553 10.196C37.3112 10.0376 37.4971 9.91177 37.7021 9.82591C37.9071 9.74005 38.1272 9.69584 38.3494 9.69587H39.884C40.1986 9.69587 40.5002 9.57091 40.7227 9.34848C40.9451 9.12604 41.0701 8.82436 41.0701 8.50979C41.0701 8.19522 40.9451 7.89354 40.7227 7.6711C40.5002 7.44867 40.1986 7.32371 39.884 7.32371H31.0922C30.7777 7.32371 30.476 7.44867 30.2536 7.6711C30.0311 7.89354 29.9062 8.19522 29.9062 8.50979C29.9062 8.82436 30.0311 9.12604 30.2536 9.34848C30.476 9.57091 30.7777 9.69587 31.0922 9.69587H32.6268C33.0711 9.69587 33.4972 9.87237 33.8114 10.1865C34.1255 10.5007 34.302 10.9268 34.302 11.3711V16.799C34.3013 17.2103 34.1493 17.607 33.875 17.9134C33.6006 18.2199 33.2231 18.4147 32.8144 18.4608C27.3987 19.0809 22.3624 21.5494 18.5546 25.45C18.4002 25.6075 18.2162 25.7331 18.0133 25.8195C17.8103 25.9059 17.5923 25.9515 17.3717 25.9537C16.9262 25.9581 16.4972 25.7853 16.1791 25.4734C15.861 25.1615 15.6798 24.736 15.6754 24.2905C15.671 23.845 15.8438 23.416 16.1557 23.0979C20.1474 19.0189 25.3258 16.3054 30.9515 15.3448V13.0464C29.8121 12.9426 28.754 12.4121 27.9892 11.5612C27.2244 10.7103 26.8093 9.6019 26.8271 8.45794C26.8449 7.31397 27.2942 6.21898 28.0852 5.3923C28.8761 4.56562 29.9502 4.06831 31.0922 4H39.884C41.026 4.06831 42.1001 4.56562 42.8911 5.3923C43.682 6.21898 44.1314 7.31397 44.1492 8.45794C44.167 9.6019 43.7519 10.7103 42.987 11.5612C42.2222 12.4121 41.1641 12.9426 40.0247 13.0464V15.318C43.7701 15.9519 47.3393 17.37 50.4984 19.4794L52.5087 17.4691C53.3591 16.6178 54.5129 16.1392 55.7161 16.1385C56.9194 16.1379 58.0737 16.6153 58.9249 17.4657C59.7762 18.3161 60.2548 19.4699 60.2555 20.6731C60.2561 21.8764 59.7787 23.0306 58.9283 23.8819L58.9484 23.8953ZM4 33.3974C4 33.8417 4.1765 34.2678 4.49067 34.582C4.80484 34.8962 5.23095 35.0726 5.67526 35.0726H17.3082C17.7525 35.0726 18.1786 34.8962 18.4928 34.582C18.807 34.2678 18.9835 33.8417 18.9835 33.3974C18.9835 32.9531 18.807 32.527 18.4928 32.2128C18.1786 31.8986 17.7525 31.7221 17.3082 31.7221H5.68196C5.23881 31.7221 4.81371 31.8977 4.49973 32.2104C4.18576 32.5232 4.00847 32.9475 4.0067 33.3907L4 33.3974ZM23.0443 41.519C23.0443 41.0747 22.8678 40.6486 22.5536 40.3344C22.2395 40.0203 21.8134 39.8438 21.3691 39.8438H9.74278C9.29847 39.8438 8.87236 40.0203 8.55819 40.3344C8.24402 40.6486 8.06752 41.0747 8.06752 41.519C8.06752 41.9633 8.24402 42.3894 8.55819 42.7036C8.87236 43.0178 9.29847 43.1943 9.74278 43.1943H21.3691C21.8134 43.1943 22.2395 43.0178 22.5536 42.7036C22.8678 42.3894 23.0443 41.9633 23.0443 41.519ZM5.68196 51.3226H17.3082C17.7525 51.3226 18.1786 51.1461 18.4928 50.832C18.807 50.5178 18.9835 50.0917 18.9835 49.6474C18.9835 49.2031 18.807 48.777 18.4928 48.4628C18.1786 48.1486 17.7525 47.9721 17.3082 47.9721H5.68196C5.23765 47.9721 4.81154 48.1486 4.49737 48.4628C4.1832 48.777 4.0067 49.2031 4.0067 49.6474C4.0067 50.0917 4.1832 50.5178 4.49737 50.832C4.81154 51.1461 5.23765 51.3226 5.68196 51.3226ZM44.7824 35.0525L40.4871 39.3479C41.1183 40.5466 41.2987 41.932 40.9957 43.2524C40.6927 44.5728 39.9264 45.7409 38.8357 46.5445C37.7451 47.3482 36.4024 47.7341 35.0515 47.6324C33.7005 47.5306 32.4309 46.9479 31.4729 45.9899C30.515 45.0319 29.9322 43.7623 29.8304 42.4113C29.7287 41.0604 30.1146 39.7178 30.9183 38.6271C31.7219 37.5364 32.89 36.7701 34.2104 36.4671C35.5309 36.1641 36.9162 36.3446 38.1149 36.9757L42.4103 32.6804C42.566 32.5246 42.7509 32.4011 42.9544 32.3168C43.158 32.2325 43.3761 32.1891 43.5964 32.1891C43.8166 32.1891 44.0347 32.2325 44.2383 32.3168C44.4418 32.4011 44.6267 32.5246 44.7824 32.6804C44.9382 32.8361 45.0617 33.0211 45.146 33.2246C45.2303 33.4281 45.2737 33.6462 45.2737 33.8665C45.2737 34.0867 45.2303 34.3049 45.146 34.5084C45.0617 34.7119 44.9382 34.8968 44.7824 35.0525ZM37.7866 41.9814C37.7866 41.5268 37.6518 41.0824 37.3992 40.7045C37.1466 40.3265 36.7877 40.0319 36.3677 39.8579C35.9477 39.6839 35.4856 39.6384 35.0397 39.7271C34.5939 39.8158 34.1843 40.0347 33.8629 40.3562C33.5414 40.6776 33.3225 41.0871 33.2338 41.533C33.1451 41.9789 33.1907 42.441 33.3646 42.861C33.5386 43.281 33.8332 43.6399 34.2112 43.8925C34.5891 44.1451 35.0335 44.2799 35.4881 44.2799C36.0972 44.2781 36.6807 44.0354 37.1114 43.6047C37.5421 43.174 37.7848 42.5905 37.7866 41.9814ZM35.4881 61.917C38.7691 61.9221 42.0007 61.1177 44.8964 59.575C47.792 58.0323 50.2623 55.7989 52.0883 53.073C53.9142 50.347 55.0394 47.2127 55.364 43.9478C55.6886 40.6829 55.2026 37.3883 53.9492 34.3562C52.6958 31.3241 50.7136 28.648 48.1783 26.5654C45.6431 24.4827 42.6332 23.0577 39.4154 22.4167C36.1976 21.7758 32.8714 21.9386 29.7317 22.8909C26.5919 23.8431 23.7356 25.5554 21.416 27.8757C21.1014 28.1903 20.9247 28.617 20.9247 29.0618C20.9247 29.5067 21.1014 29.9333 21.416 30.2479C21.7305 30.5625 22.1572 30.7392 22.602 30.7392C23.0469 30.7392 23.4736 30.5625 23.7881 30.2479C26.1083 27.9237 29.0658 26.3401 32.2864 25.6973C35.5069 25.0545 38.8458 25.3816 41.8804 26.637C44.9151 27.8925 47.5091 30.0199 49.3342 32.7501C51.1593 35.4804 52.1335 38.6906 52.1335 41.9747C52.1335 45.2588 51.1593 48.469 49.3342 51.1993C47.5091 53.9295 44.9151 56.0569 41.8804 57.3124C38.8458 58.5678 35.5069 58.8949 32.2864 58.2521C29.0658 57.6094 26.1083 56.0257 23.7881 53.7015C23.4736 53.3869 23.0469 53.2102 22.602 53.2102C22.1572 53.2102 21.7305 53.3869 21.416 53.7015C21.1014 54.0161 20.9247 54.4427 20.9247 54.8876C20.9247 55.3324 21.1014 55.7591 21.416 56.0737C23.2624 57.9248 25.4556 59.3937 27.8703 60.3964C30.2849 61.399 32.8736 61.9157 35.4881 61.917Z" fill="url(#paint0_linear)"/>
</g>
<defs>
<filter id="filter0_d" x="0" y="0" width="66.4923" height="73" filterUnits="userSpaceOnUse" color-interpolation-filters="sRGB">
<feFlood flood-opacity="0" result="BackgroundImageFix"/>
<feColorMatrix in="SourceAlpha" type="matrix" values="0 0 0 0 0 0 0 0 0 0 0 0 0 0 0 0 0 0 127 0"/>
<feOffset/>
<feGaussianBlur stdDeviation="2"/>
<feColorMatrix type="matrix" values="0 0 0 0 1 0 0 0 0 0.822745 0 0 0 0 0.317647 0 0 0 0.35 0"/>
<feBlend mode="normal" in2="BackgroundImageFix" result="effect1_dropShadow"/>
<feBlend mode="normal" in="SourceGraphic" in2="effect1_dropShadow" result="shape"/>
</filter>
<linearGradient id="paint0_linear" x1="5.70036" y1="13.75" x2="61.1561" y2="16.2794" gradientUnits="userSpaceOnUse">
<stop stop-color="#FFD251"/>
<stop offset="1" stop-color="#FFAF51"/>
</linearGradient>
</defs>
</svg>
