<svg width="56" height="55" viewBox="0 0 56 55" fill="none" xmlns="http://www.w3.org/2000/svg">
<g filter="url(#filter0_d)">
<path d="M49.3 25.7H47.9C47.9 25.8 47.9 26 47.9 26.1V27.6C47.9 29.1 46.7 30.3 45.3 30.3H38.6C37.1 30.3 35.9 29.1 35.9 27.6V26.1C35.9 26 35.9 25.8 35.9 25.7H34.5C33 25.7 31.8 26.9 31.8 28.4V47.9C31.8 49.4 33 50.6 34.5 50.6H49.2C50.7 50.6 51.9 49.4 51.9 47.9V28.4C52 26.9 50.8 25.7 49.3 25.7ZM37.3 46.9H34.3V43.9H37.3V46.9ZM37.3 41.2H34.3V38.2H37.3V41.2ZM37.3 35.4H34.3V32.4H37.3V35.4ZM48.1 46.1H41.3C40.9 46.1 40.5 45.8 40.5 45.3C40.5 44.9 40.8 44.5 41.3 44.5H48.1C48.5 44.5 48.9 44.8 48.9 45.3C48.9 45.8 48.5 46.1 48.1 46.1ZM48.1 40.4H41.3C40.9 40.4 40.5 40.1 40.5 39.6C40.5 39.2 40.8 38.8 41.3 38.8H48.1C48.5 38.8 48.9 39.1 48.9 39.6C48.9 40.1 48.5 40.4 48.1 40.4ZM48.1 34.7H41.3C40.9 34.7 40.5 34.4 40.5 34C40.5 33.6 40.8 33.2 41.3 33.2H48.1C48.5 33.2 48.9 33.5 48.9 34C48.9 34.4 48.5 34.7 48.1 34.7Z" fill="url(#paint0_linear)"/>
<path d="M46.4 26.1V27.6C46.4 28.2 45.9 28.8 45.2 28.8H38.5C37.9 28.8 37.3 28.3 37.3 27.6V26.1C37.3 25.5 37.8 24.9 38.5 24.9H39.2C39.5 23.7 40.6 22.9 41.8 22.9C43 22.9 44.1 23.7 44.4 24.9H45.1C45.9 24.9 46.4 25.4 46.4 26.1Z" fill="url(#paint1_linear)"/>
<path d="M7.1 49.1H4C4.1 46.4 4.2 37.1 4.7 34.7C5 33.1 6.2 32.1 7.1 31.6V49.1Z" fill="url(#paint2_linear)"/>
<path d="M11.6 13.6C12 9.7 14 6.5 16.8 4.9L17.8 10C17.9 10.4 18.2 10.6 18.5 10.6C19 10.6 19.3 10.2 19.2 9.7L18.2 4.3C19.6 3.9 21.1 3.9 22.5 4.3L21.4 9.7C21.3 10.1 21.6 10.5 22 10.6C22.4 10.7 22.8 10.4 22.9 10L23.9 4.9C26.7 6.5 28.7 9.8 29.1 13.6H11.6Z" fill="url(#paint3_linear)"/>
<path d="M23.8 28.1L29.3 29.8V36.6H11.9V29.8L17.2 28.1C18.2 28.6 19.2 29 20.5 29C21.7 29 22.7 28.7 23.8 28.1Z" fill="url(#paint4_linear)"/>
<path d="M11.1 15.9C11.2 15.6 11.3 15.5 11.5 15.5C11.9 15.7 12.4 15.6 12.6 15.2H28.3C28.6 15.9 29.4 15.5 29.5 15.5C29.7 15.5 30.1 16.3 29.9 17.4C29.7 18.5 29.1 19 28.9 19C27.8 18.8 28.3 20 27 21.9C25.3 24.1 24.7 26.5 21.9 27.3C16.8 28.9 14.8 22.9 13.8 21.9C13.3 21.2 13 20.4 12.8 19.5C12.7 19 12.2 18.9 12 18.9C11.8 19 10.6 17.2 11.1 15.9Z" fill="url(#paint5_linear)"/>
<path d="M8.59998 49.1V30.9L10.4 30.3V37.4C10.4 37.8 10.7 38.2 11.1 38.2H30C30.1 38.2 30.3 38.2 30.4 38.1V48C30.4 48.4 30.5 48.8 30.6 49.2H8.59998V49.1Z" fill="url(#paint6_linear)"/>
</g>
<defs>
<filter id="filter0_d" x="0" y="0" width="55.9058" height="54.6" filterUnits="userSpaceOnUse" color-interpolation-filters="sRGB">
<feFlood flood-opacity="0" result="BackgroundImageFix"/>
<feColorMatrix in="SourceAlpha" type="matrix" values="0 0 0 0 0 0 0 0 0 0 0 0 0 0 0 0 0 0 127 0"/>
<feOffset/>
<feGaussianBlur stdDeviation="2"/>
<feColorMatrix type="matrix" values="0 0 0 0 1 0 0 0 0 0.822745 0 0 0 0 0.317647 0 0 0 0.35 0"/>
<feBlend mode="normal" in2="BackgroundImageFix" result="effect1_dropShadow"/>
<feBlend mode="normal" in="SourceGraphic" in2="effect1_dropShadow" result="shape"/>
</filter>
<linearGradient id="paint0_linear" x1="32.3845" y1="29.435" x2="51.4543" y2="30.2155" gradientUnits="userSpaceOnUse">
<stop stop-color="#FFD251"/>
<stop offset="1" stop-color="#FFAF51"/>
</linearGradient>
<linearGradient id="paint1_linear" x1="37.5645" y1="23.785" x2="46.1576" y2="24.4568" gradientUnits="userSpaceOnUse">
<stop stop-color="#FFD251"/>
<stop offset="1" stop-color="#FFAF51"/>
</linearGradient>
<linearGradient id="paint2_linear" x1="4.09012" y1="34.225" x2="7.03506" y2="34.2514" gradientUnits="userSpaceOnUse">
<stop stop-color="#FFD251"/>
<stop offset="1" stop-color="#FFAF51"/>
</linearGradient>
<linearGradient id="paint3_linear" x1="12.1087" y1="5.44" x2="28.594" y2="6.96317" gradientUnits="userSpaceOnUse">
<stop stop-color="#FFD251"/>
<stop offset="1" stop-color="#FFAF51"/>
</linearGradient>
<linearGradient id="paint4_linear" x1="12.4058" y1="29.375" x2="28.7608" y2="31.0719" gradientUnits="userSpaceOnUse">
<stop stop-color="#FFD251"/>
<stop offset="1" stop-color="#FFAF51"/>
</linearGradient>
<linearGradient id="paint5_linear" x1="11.5307" y1="17.0555" x2="29.4501" y2="18.4488" gradientUnits="userSpaceOnUse">
<stop stop-color="#FFD251"/>
<stop offset="1" stop-color="#FFAF51"/>
</linearGradient>
<linearGradient id="paint6_linear" x1="9.23951" y1="33.135" x2="30.0683" y2="34.3639" gradientUnits="userSpaceOnUse">
<stop stop-color="#FFD251"/>
<stop offset="1" stop-color="#FFAF51"/>
</linearGradient>
</defs>
</svg>
