<svg width="16" height="16" viewBox="0 0 16 16" fill="none" xmlns="http://www.w3.org/2000/svg">
<path d="M13.6566 2.34126C12.5374 1.22297 11.1118 0.461579 9.55989 0.153331C8.008 -0.154918 6.39955 0.00382058 4.93788 0.609478C3.47621 1.21514 2.22695 2.24052 1.34803 3.556C0.469113 4.87147 0 6.41798 0 8C0 9.58202 0.469113 11.1285 1.34803 12.444C2.22695 13.7595 3.47621 14.7849 4.93788 15.3905C6.39955 15.9962 8.008 16.1549 9.55989 15.8467C11.1118 15.5384 12.5374 14.777 13.6566 13.6587C15.1571 12.1577 16 10.1223 16 8C16 5.87772 15.1571 3.8423 13.6566 2.34126ZM7.12735 8.87063H3.63848V7.12617H12.3604V8.87109H7.12735V8.87063Z" fill="#DDDDDD"/>
</svg>
