<svg width="19" height="19" viewBox="0 0 19 19" fill="none" xmlns="http://www.w3.org/2000/svg">
<path fill-rule="evenodd" clip-rule="evenodd" d="M9.50019 18.3049C8.3121 18.3049 7.15933 18.0728 6.07391 17.615C5.02511 17.1727 4.08348 16.5395 3.27518 15.7329C2.46639 14.9257 1.83138 13.9853 1.3878 12.9375C0.928299 11.8522 0.695312 10.6989 0.695312 9.50963C0.695312 8.32038 0.928239 7.1662 1.38762 6.07914C1.83116 5.02954 2.46596 4.08696 3.27437 3.27759C4.08284 2.46816 5.0244 1.83255 6.0729 1.38842C7.15894 0.928384 8.31204 0.695129 9.50019 0.695129C10.6839 0.695129 11.8335 0.928468 12.9172 1.38866C13.9631 1.83278 14.9033 2.46832 15.7116 3.27759C16.5197 4.08661 17.1555 5.02873 17.6014 6.0778C18.0632 7.1643 18.3 8.31793 18.3051 9.50665L18.3051 9.50813V9.50963C18.3051 14.3593 14.3552 18.3049 9.50019 18.3049ZM15 9.5C15 9.22386 14.7761 9 14.5 9H10V4.5C10 4.22386 9.77614 4 9.5 4C9.22386 4 9 4.22386 9 4.5V9H4.5C4.22386 9 4 9.22386 4 9.5C4 9.77614 4.22386 10 4.5 10H9V14.5C9 14.7761 9.22386 15 9.5 15C9.77614 15 10 14.7761 10 14.5V10H14.5C14.7761 10 15 9.77614 15 9.5Z" fill="#A0D180"/>
<path fill-rule="evenodd" clip-rule="evenodd" d="M1.39024 9.50962C1.39024 5.02665 5.02234 1.39024 9.5 1.39024C13.9584 1.39024 17.5905 5.02665 17.6098 9.50962C17.6098 13.9734 13.9777 17.6098 9.5 17.6098C5.02234 17.6098 1.39024 13.9926 1.39024 9.50962ZM13.1887 0.748831C12.0186 0.251945 10.7775 0 9.5 0C8.21819 0 6.97386 0.251777 5.80159 0.748345C4.67023 1.22758 3.65442 1.91326 2.78236 2.78635C1.91042 3.65933 1.22567 4.67614 0.747127 5.80855C0.25137 6.9817 0 8.22692 0 9.50962C0 10.7925 0.251491 12.037 0.747487 13.2085C1.22621 14.3393 1.91139 15.3541 2.78398 16.2249C3.65596 17.095 4.67191 17.7782 5.80361 18.2555C6.97498 18.7495 8.21862 19 9.5 19C14.7383 19 19 14.7426 19 9.50962V9.50664L19 9.50366C18.9945 8.22201 18.7391 6.97789 18.2409 5.80587C17.76 4.67453 17.0745 3.65862 16.2032 2.78635C15.3315 1.91356 14.3173 1.22804 13.1887 0.748831Z" fill="white"/>
<path fill-rule="evenodd" clip-rule="evenodd" d="M9.5 4C9.22386 4 9 4.22386 9 4.5V9H4.5C4.22386 9 4 9.22386 4 9.5C4 9.77614 4.22386 10 4.5 10H9V14.5C9 14.7761 9.22386 15 9.5 15C9.77614 15 10 14.7761 10 14.5V10H14.5C14.7761 10 15 9.77614 15 9.5C15 9.22386 14.7761 9 14.5 9H10V4.5C10 4.22386 9.77614 4 9.5 4Z" fill="white"/>
<path d="M9 9V9.25H9.25V9H9ZM9 10H9.25V9.75H9V10ZM10 10V9.75H9.75V10H10ZM10 9H9.75V9.25H10V9ZM9.25 4.5C9.25 4.36193 9.36193 4.25 9.5 4.25V3.75C9.08579 3.75 8.75 4.08579 8.75 4.5H9.25ZM9.25 9V4.5H8.75V9H9.25ZM4.5 9.25H9V8.75H4.5V9.25ZM4.25 9.5C4.25 9.36193 4.36193 9.25 4.5 9.25V8.75C4.08579 8.75 3.75 9.08579 3.75 9.5H4.25ZM4.5 9.75C4.36193 9.75 4.25 9.63807 4.25 9.5H3.75C3.75 9.91421 4.08579 10.25 4.5 10.25V9.75ZM9 9.75H4.5V10.25H9V9.75ZM9.25 14.5V10H8.75V14.5H9.25ZM9.5 14.75C9.36193 14.75 9.25 14.6381 9.25 14.5H8.75C8.75 14.9142 9.08579 15.25 9.5 15.25V14.75ZM9.75 14.5C9.75 14.6381 9.63807 14.75 9.5 14.75V15.25C9.91421 15.25 10.25 14.9142 10.25 14.5H9.75ZM9.75 10V14.5H10.25V10H9.75ZM14.5 9.75H10V10.25H14.5V9.75ZM14.75 9.5C14.75 9.63807 14.6381 9.75 14.5 9.75V10.25C14.9142 10.25 15.25 9.91421 15.25 9.5H14.75ZM14.5 9.25C14.6381 9.25 14.75 9.36193 14.75 9.5H15.25C15.25 9.08579 14.9142 8.75 14.5 8.75V9.25ZM10 9.25H14.5V8.75H10V9.25ZM9.75 4.5V9H10.25V4.5H9.75ZM9.5 4.25C9.63807 4.25 9.75 4.36193 9.75 4.5H10.25C10.25 4.08579 9.91421 3.75 9.5 3.75V4.25Z" fill="white"/>
</svg>
